<?xml version="1.0" encoding="UTF-8"?>
<!DOCTYPE svg PUBLIC "-//W3C//DTD SVG 1.1//EN" "http://www.w3.org/Graphics/SVG/1.1/DTD/svg11.dtd">
<!-- Creator: CorelDRAW 2020 (64-Bit) -->
<svg xmlns="http://www.w3.org/2000/svg" xml:space="preserve" width="31.7498mm" height="16.9332mm" version="1.1" style="shape-rendering:geometricPrecision; text-rendering:geometricPrecision; image-rendering:optimizeQuality; fill-rule:evenodd; clip-rule:evenodd"
viewBox="0 0 3174.98 1693.32"
 xmlns:xlink="http://www.w3.org/1999/xlink"
 xmlns:xodm="http://www.corel.com/coreldraw/odm/2003">
 <defs>
  <style type="text/css">
   <![CDATA[
    .fil0 {fill:#5F6369}
   ]]>
  </style>
 </defs>
 <g id="Layer_x0020_1">
  <metadata id="CorelCorpID_0Corel-Layer"/>
  <g id="_1795322048160">
   <rect class="fil0" x="697.62" y="960.69" width="2425.77" height="22.24"/>
   <path class="fil0" d="M606.14 1563.76c164.69,-0.05 290.2,-31.91 427.02,-75.52 -12.14,-26.73 -16.35,-27.13 -22.47,-64.26 -19.83,40.13 -19.01,106.08 -140.51,96.73 -110.11,-8.47 -101.05,-97.47 -108.45,-117.26l-5.87 -11.01c-11.41,14.77 -6.5,50.22 -6.09,77.64 0.74,50.19 4.92,47.21 -59.96,47.08 -40.47,-0.15 -36.34,-8.03 -52.47,-34.46l-29.05 -46.19c-3.63,-4.69 -3.8,-4.72 -7.03,-7.93 -0.36,25.29 4.73,58.88 -3.85,80.98 -18.68,13.6 -73.65,11.41 -89.95,1.82 -11.84,-12.05 -6.1,-200.85 -5.62,-244.33 0.45,-39.66 13.46,-32.21 51.16,-32.09 -4.2,-30.04 -82.25,-137.76 -28.87,-326.65 81.23,-287.43 401.05,-451.21 705.18,-467.8 -16.05,-24.89 -221.54,-242.87 -265.19,-288.44 -12.09,-12.62 -14.12,-22.56 -31.65,-22.51 -10.2,0.03 -32.1,10.76 -42.83,15.2 -261.19,108.17 -491.28,258.81 -665.34,450.62 -385.84,425.18 -253.48,968.56 381.84,968.38z"/>
   <path class="fil0" d="M1219.03 721.29c-78.49,13.95 -112.33,33.58 -155.56,78.49 -34.35,35.69 -68.33,99.18 -69.84,168.04 -1.32,60.32 32.16,140.17 63.1,170.36 30.21,29.48 164.99,9.6 206.65,-2.17 88.35,-24.95 156.21,-79.03 202.13,-149.72 11.94,-18.39 37.13,-57.93 32.5,-82.13 -19.79,-103.49 -151.81,-205.47 -278.98,-182.87z"/>
   <path class="fil0" d="M1609.59 1499.41l55.58 -0.61 1.31 -171.63c20.67,33.77 29.51,124.54 43.52,170.65l49.18 1.34 42.43 -175.23 3.13 175.12 54.8 -0.1 1.43 -247.37 -89.64 0c-16.6,46.24 -15.52,105.62 -37.41,144.71l-33.01 -144.17 -89.46 -0.84 -1.86 248.13z"/>
   <path class="fil0" d="M2408.09 1498.92c118.87,1.57 205.1,13.39 205.62,-121.41 0.52,-135.18 -81.52,-133.51 -204.25,-125.51l-1.37 246.92zm69.15 -56.21c55.49,0.72 66.93,-8.86 66.99,-65.25 0.06,-55.89 -10.11,-71.02 -66.43,-70.08l-0.56 135.33z"/>
   <path class="fil0" d="M2772.12 1499.43l68.55 -0.66 1.1 -100.35c31.1,3.27 30.97,16.78 43.32,42.92 9.23,19.53 20.33,40.57 29.43,57.98l75.94 -0.5c-15.22,-41.36 -32.57,-83.56 -63.96,-108.16 6.32,-5.55 4.68,-3.7 13.46,-9.09 52.29,-32.06 33.8,-98.09 13.98,-114.84 -28.77,-24.32 -134.32,-15.41 -179.96,-15.35l-1.86 248.05zm69.62 -147.53c29.84,-0.18 36.14,0.73 58.65,-8.98 12,-48.04 -18.77,-41.82 -58.89,-41.85l0.24 50.83z"/>
   <path class="fil0" d="M2147.85 1499.21l63.75 -0.3 1.56 -130.6 83.68 131.24 63.78 -0.79 0.9 -246.49 -63.25 -1.04 -2.37 133.25c-28.34,-44.49 -55.59,-89.71 -83.97,-132.86l-62.55 -0.19 -1.53 247.78z"/>
   <path class="fil0" d="M518.63 1499.04l63.7 -0.08 1.59 -130.89c24.88,28.55 62.52,105.95 84.2,131.18l63.28 -0.47 0.97 -246.64 -63.22 -0.86 -2.31 133.12c-29.92,-44.54 -55.17,-89.88 -84.13,-132.87l-62.6 -0.03 -1.48 247.54z"/>
   <path class="fil0" d="M991.66 1251.78l-66.3 -0.31c-4.38,30.06 -1.53,80.88 -1.46,112.77 0.1,38.81 6.87,79.8 -35.94,81.21 -65.78,2.17 -30.06,-101.47 -41.45,-193.71l-66.4 -0.24c-3.94,27.74 -3.43,149.21 1.31,175.08 9.81,53.48 44.21,75.44 102.13,76.84 59.01,1.43 93.46,-22.9 105.57,-72.49 5.98,-24.48 5.8,-151.38 2.54,-179.15z"/>
   <path class="fil0" d="M1241.16 1498.43l68.72 0.6 13.2 -40.47 77.2 -0.12 11.9 41.17 69.53 -0.62c-1.2,-18.31 -59.98,-185.26 -73.93,-227.52 -8.37,-25.34 -6.65,-22.89 -81.9,-19.68l-84.72 246.64zm91.54 -89.4l59.88 0 -29.08 -90.23 -30.8 90.23z"/>
   <path class="fil0" d="M1884.01 1499.55l67.83 -0.68 12.2 -40.23 76.42 -0.39 12.88 39.7 70.31 1.14 -81.92 -248.05c-96.4,1.7 -67.24,-23.48 -116.25,120.37 -12.1,35.53 -36.16,94.6 -41.47,128.14zm83.79 -90.09l64.15 0 -33.36 -93.23 -30.79 93.23z"/>
   <path class="fil0" d="M1160.54 1440.82c-12.87,9.58 -23.59,18.14 -43.53,11.59 -22.19,-7.28 -15.84,-16.74 -26.47,-38.4l-64.14 2.87c12.79,123.68 155.84,89.52 182.68,57.15 26.85,-32.37 28.05,-81.44 -4.08,-109.79 -30.83,-27.2 -77.35,-24.79 -105.08,-43.72 -1.99,-37.7 45.93,-41.46 56.34,4.73l64.27 -4.46c-7.13,-99.71 -149.94,-90.36 -178.97,-31.74 -20.38,41.14 2.31,76.54 32.08,92.02 39.64,20.62 89.06,10.95 86.9,59.75z"/>
   <path class="fil0" d="M2405.72 1197.63l53.78 -0.71 0.88 -126.87 41.77 127.33c52.37,-0.21 47.52,4.66 56.55,-24.84l24.82 -81.12c8.51,-21.07 -3.02,5.03 2.98,-6.7 5.32,-10.4 2.06,-4.42 6.08,-9.59l0.41 121.7 54.14 -0.35 0.26 -174.54 -86.03 -2.58 -33.25 102.23c-22.65,-34.97 -22.68,-97.2 -41.62,-102.18l-81.23 -0.05 0.46 178.27z"/>
   <path class="fil0" d="M1088.51 1164.69c18.99,31.13 86.69,54.12 131.53,61.97 56.66,9.93 118.48,-9.17 159.01,-31.89 44.14,-24.75 69.5,-53.07 94.62,-94.71 17.89,-29.65 46.16,-112.72 30.81,-152.99 -25.99,32 -41.88,103.49 -149.93,165.91 -82.12,47.45 -157.05,56.09 -266.04,51.71z"/>
   <path class="fil0" d="M2806.9 1197.77l66.02 -0.95 0.58 -45.15c12.3,-7.78 20.65,-18.76 36.31,-25.82 8.21,17.97 29.45,53.42 43.46,70.36l78.99 0.99c-16.64,-35.86 -58.01,-75.27 -77.26,-110.39 11.64,-17.24 54.92,-47.8 73,-66.04 -27.68,-2.95 -77.58,-8.03 -96.96,8.65l-57.59 54.43 0.04 -63.54 -66.99 -1.1 0.4 178.56z"/>
   <path class="fil0" d="M2025.13 1135.45l-63.65 2.93c15.04,91.19 149.58,63.44 176.34,40.11 30.53,-26.62 20.24,-65.8 -12.65,-82.79 -14.95,-7.72 -33.01,-11.28 -51.17,-14.92 -42.54,-8.53 -41.02,-2.91 -41.56,-25.75 9.04,-3.58 21.57,-7.47 34.8,-3.67l22.92 20.68 58.28 -2.6c-12.31,-84.02 -198.88,-63.45 -176.76,11.67 11.18,37.95 66.13,35.86 102.08,48.56 53.95,19.05 -31.88,67.68 -48.63,5.78z"/>
   <path class="fil0" d="M1625.72 960.51c18.52,20.67 -8.7,75.7 -19.67,95.5 -15.15,27.34 -35.3,50.65 -52.51,71.13 -10.86,12.92 -20.79,21.67 -34.05,31.92 -40.28,31.12 -50.97,46.63 -107.03,79.29l15.41 37.76c79.78,-51.67 300.88,-251.79 233.34,-359.16 -12.28,-19.53 -32.65,-36.24 -63.28,-43.57 -19.24,-4.62 -50.93,-4.6 -71.02,1.38l-20.4 11.31c49.16,6.77 118.76,27.19 119.21,74.44z"/>
   <polygon class="fil0" points="2174.74,1063.36 2242.12,1064.12 2242.12,1197.48 2308.21,1196.56 2308.49,1069.2 2308.42,1063.22 2374.76,1063.16 2376.54,1019.97 2174.05,1019.45 "/>
   <polygon class="fil0" points="2652.73,1499.38 2721.3,1498.63 2721.97,1252.71 2654.75,1251.19 "/>
   <polygon class="fil0" points="3016.75,1498.24 3084.15,1499.09 3085.81,1251.46 3017.75,1251.71 "/>
   <polygon class="fil0" points="2692.27,1197.73 2758.45,1196.86 2758.97,1020.27 2691.85,1019.21 "/>
   <circle class="fil0" cx="680.09" cy="972.38" r="42.34"/>
   <circle class="fil0" cx="3124.6" cy="972.38" r="42.34"/>
  </g>
 </g>
</svg>
