<svg width="101" height="30" xmlns="http://www.w3.org/2000/svg"><g fill="none" fill-rule="evenodd"><path d="M91.757 8.67c.258-.106.28-.127.184-.4-.549-1.569-2.618-2.415-4.378-1.679-1.388.581-2.394 2.048-2.394 3.691 0 2.214 1.597 4.183 3.768 4.183.996 0 1.704-.138 2.335-.538.134-.124.896-.733.903-.864 0-.032-.107.063-.273.155-.489.259-1.225.358-1.803.369-1.165.021-2.097-.776-2.706-1.718a4.51 4.51 0 0 1-.708-2.047c-.096-1.148.184-2.465 1.477-2.788.86-.216 1.679.27 1.994 1.098.145.376.057.574-.29.716l-3.117 1.3 1.062.067c1.265-.528 2.681-1.02 3.946-1.544zm-9.592-6.385h2.327c-.322.209-.432.297-.57.517-.1.159-.124.457-.142.726-.134 3.106-.053 6.234-.074 9.34.014.846.347.747 1.445.715-.166.142-.436.418-.645.539-.991 0-1.94-.022-2.932-.022.375-.386.566-.634.542-1.6.021-3.245-.11-6.362.088-9.486-.464.014-.889.007-1.353.021.436-.226.854-.545 1.314-.75z" fill="#757D81" fill-rule="nonzero"/><path d="M79.806 14.083c-.513-.383-1.399-.91-1.342-1.637.018-.248.195-.506.545-.712.613-.36 1.031-.832 1.24-1.381.22-.58.188-1.215-.028-1.785a2.93 2.93 0 0 0-1.045-1.353h1.133l.996-.645c-1.417-.01-2.76-.01-4.205-.01-1.392 0-2.645.673-3.209 1.884a3.048 3.048 0 0 0-.198 1.952c.33 1.342 1.732 2.23 3.092 2.025.149-.02.198-.07.12.068-.3.528-.08 1.317.51 1.703a6.742 6.742 0 0 0-1.275.018c-1.664.195-3.506 1.049-3.41 2.844.074 1.389 1.48 2.409 3.704 2.42 1.793-.008 3.482-.574 4.19-1.842.74-1.332.302-2.71-.818-3.55zM75.28 9.999c-.39-1.52.014-2.483.949-2.777 1.109-.347 2.295.655 2.564 2.295.177 1.077-.095 2.093-1.066 2.363-.991.28-2.093-.493-2.447-1.881zm4.413 7.084c-.096.843-.903 1.505-2.284 1.59-1.477.089-3.464-.496-3.096-2.437.195-1.034 1.569-1.569 2.702-1.608.316-.01.634.014.95.025.166.124.34.24.52.354.974.62 1.286 1.378 1.208 2.076zm-6.857-6.886c-.124-2.079-1.516-3.853-4.187-3.853-2.309 0-4.193 1.802-4.193 4.009 0 2.525 2.192 4.257 4.707 3.988 2.09-.22 3.797-2.072 3.673-4.144zm-3.39 3.52c-1.399.323-2.88-.835-3.251-2.808-.408-2.164.265-3.584 1.583-3.935 1.566-.414 3.16 1.165 3.39 3.489.159 1.523-.355 2.94-1.722 3.255zm-5.71-3.52c-.127-2.079-1.533-3.853-4.235-3.853-2.338 0-4.244 1.802-4.244 4.009 0 2.525 2.221 4.257 4.764 3.988 2.115-.22 3.843-2.072 3.716-4.144zm-3.424 3.52c-1.417.323-2.915-.835-3.29-2.808-.412-2.164.268-3.584 1.604-3.935 1.583-.414 3.195 1.165 3.432 3.489.152 1.523-.365 2.94-1.746 3.255zm-7.52-8.482l1.215-1.236c-2.061-1.707-5.593-1.93-7.937-.744-2.037 1.03-3.517 3.074-3.592 5.359-.074 2.405 1.321 4.307 2.738 5.263 2.341 1.58 6.4 1.226 8.844-.007v-2.748l.57-.666h-3.56l-1.317.744 2.561-.078v2.22c0 .316.004.365-.514.535-.73.191-1.554.23-2.309.167-2.557-.213-4.505-2.235-4.97-4.754-.438-2.39.692-4.654 2.597-5.585.932-.457 2.047-.67 3.259-.284.758.245 1.448.68 2.05 1.286l-.418.762.783-.234zM45.446 20.89c-.8 0-1.43.255-1.891.769-.46.513-.69 1.215-.69 2.107 0 .91.215 1.619.65 2.125.437.503 1.056.755 1.864.755.535 0 1.027-.067 1.477-.206v.394c-.422.148-.95.223-1.583.223-.896 0-1.605-.29-2.118-.872-.517-.58-.772-1.388-.772-2.43 0-.648.123-1.221.368-1.717a2.667 2.667 0 0 1 1.062-1.148c.46-.269 1-.404 1.612-.404.623 0 1.18.117 1.672.351l-.18.4a3.284 3.284 0 0 0-1.47-.347zm3.078 6.078h-.432v-6.8h.432v6.8zm5.494-2.384c0 .776-.188 1.382-.563 1.817-.376.436-.893.652-1.555.652-.418 0-.783-.099-1.102-.3a1.931 1.931 0 0 1-.73-.865c-.17-.376-.255-.811-.255-1.304 0-.775.188-1.377.564-1.81.375-.432.892-.648 1.547-.648.652 0 1.166.22 1.538.66.372.435.556 1.037.556 1.798zm-3.748 0c0 .652.142 1.162.432 1.527.287.365.695.549 1.219.549.524 0 .931-.184 1.218-.549.287-.365.432-.875.432-1.527 0-.655-.145-1.165-.435-1.523-.29-.36-.698-.542-1.222-.542s-.928.181-1.212.539c-.29.361-.432.871-.432 1.526zm5.285-2.366v3.075c0 .478.1.825.301 1.041.202.216.514.326.935.326.567 0 .981-.142 1.247-.429.265-.286.4-.75.4-1.395v-2.621h.429v4.75h-.369l-.078-.656h-.024c-.309.496-.858.744-1.647.744-1.08 0-1.623-.577-1.623-1.735v-3.103h.429v.003zm6.489-.092c.343 0 .64.064.892.188s.475.34.673.641h.025a22.395 22.395 0 0 1-.025-1.08v-1.707h.429v6.797h-.284l-.11-.727h-.035c-.361.542-.878.812-1.555.812-.655 0-1.158-.206-1.501-.613-.348-.407-.521-1.003-.521-1.782 0-.821.173-1.448.517-1.884.34-.429.84-.645 1.495-.645zm0 .393c-.517 0-.907.181-1.17.546-.261.365-.389.892-.389 1.587 0 1.346.524 2.019 1.57 2.019.534 0 .927-.156 1.179-.468.251-.312.375-.825.375-1.54v-.075c0-.733-.124-1.261-.368-1.583-.248-.326-.648-.486-1.197-.486zm9.782-.106c0 .617-.209 1.091-.63 1.42-.418.33-1.013.493-1.782.493h-.988v2.639h-.446v-6.386h1.565c1.52 0 2.281.612 2.281 1.834zm-3.4 1.53h.879c.719 0 1.24-.12 1.558-.357.319-.238.482-.624.482-1.155 0-.492-.153-.857-.454-1.095-.304-.237-.772-.354-1.406-.354h-1.059v2.961zm4.881 3.025h-.432v-6.8h.432v6.8zm4.537 0l-.11-.75H77.7c-.237.304-.485.52-.737.647a1.951 1.951 0 0 1-.892.192c-.468 0-.83-.12-1.088-.358-.258-.237-.39-.57-.39-.992 0-.464.192-.822.578-1.08.386-.255.946-.393 1.675-.407l.904-.025v-.315c0-.454-.093-.794-.277-1.024-.184-.23-.478-.344-.885-.344-.44 0-.896.124-1.367.369l-.163-.376a3.627 3.627 0 0 1 1.547-.368c.521 0 .91.135 1.17.407.258.273.385.694.385 1.268v3.16h-.315v-.004zm-1.746-.308c.506 0 .907-.145 1.2-.436.295-.29.44-.69.44-1.207v-.468l-.829.035c-.666.032-1.144.139-1.427.312-.284.177-.425.45-.425.822 0 .297.092.528.272.694.177.167.436.248.769.248zm4.8.01c.272 0 .513-.024.715-.07v.35c-.21.071-.454.107-.726.107-.418 0-.73-.114-.928-.337-.199-.223-.298-.577-.298-1.059v-3.067h-.705v-.255l.705-.199.22-1.073h.223v1.148h1.395v.375h-1.395v3.007c0 .365.064.634.191.808.128.177.326.266.602.266zm3.45-4.076h-1.12v4.374h-.432v-4.374h-.882v-.255l.882-.163v-.368c0-.581.106-1.01.322-1.283.213-.272.563-.407 1.052-.407.262 0 .524.039.786.117l-.099.375a2.271 2.271 0 0 0-.694-.11c-.34 0-.577.1-.72.298-.14.198-.212.524-.212.97v.443h1.12v.383h-.004zm4.802 1.99c0 .776-.188 1.382-.563 1.817-.376.436-.893.652-1.555.652-.418 0-.783-.099-1.102-.3a1.931 1.931 0 0 1-.73-.865c-.17-.376-.254-.811-.254-1.304 0-.775.187-1.377.563-1.81.375-.432.892-.648 1.548-.648.651 0 1.165.22 1.537.66.368.435.556 1.037.556 1.798zm-3.747 0c0 .652.141 1.162.432 1.527.287.365.694.549 1.218.549s.932-.184 1.219-.549c.286-.365.432-.875.432-1.527 0-.655-.146-1.165-.436-1.523-.29-.36-.698-.542-1.222-.542s-.928.181-1.211.539c-.29.361-.432.871-.432 1.526zm6.835-2.458c.202 0 .418.022.649.06l-.085.415a2.532 2.532 0 0 0-.617-.074c-.403 0-.736.173-.995.517-.258.343-.39.779-.39 1.303v2.621h-.432v-4.75h.369l.042.858h.032c.195-.351.404-.595.623-.737.22-.142.49-.213.804-.213zm7.541 4.842v-3.117c0-.464-.088-.8-.269-1.013-.18-.212-.457-.319-.829-.319-.485 0-.846.135-1.08.4-.234.27-.35.691-.35 1.265v2.784h-.443V23.72c0-.8-.369-1.2-1.102-1.2-.5 0-.86.145-1.087.435-.227.29-.34.755-.34 1.392v2.621h-.432v-4.75h.357l.092.652h.025a1.37 1.37 0 0 1 .56-.549c.24-.13.506-.195.8-.195.748 0 1.23.28 1.442.843h.017c.153-.269.362-.478.624-.623.262-.145.556-.22.889-.22.517 0 .907.138 1.165.415.259.276.39.715.39 1.32v3.107h-.429z" fill="#757D81" fill-rule="nonzero"/><path fill="#CFCECB" d="M10.792 25.194L4.85 14.897l5.943-10.296h11.89l5.947 10.296-5.947 10.297z"/><path d="M11.802 23.9l-5.285-9.038L3.62 9.907c-.213-.365-.298-.868-.266-1.346L.308 13.835c-.365.63-.365 1.664 0 2.295l7.325 12.687c.365.63 1.257 1.148 1.987 1.148h8.72c.35-.206.652-.486.829-.794l2.986-5.274H11.802v.004z" fill="#5F6369"/><path fill="#DD462F" d="M33.584 13.835L26.26 1.148 29.235 6.3z"/><path d="M33.584 13.835L29.234 6.3c-.374-.23-.807-.379-1.196-.379h-5.894l5.1 8.99-5.09 8.989-2.985 5.274c-.177.308-.482.588-.829.793h5.933c.73 0 1.622-.517 1.987-1.147l2.915-5.048 4.413-7.643c.361-.63.361-1.661-.004-2.295z" fill="#5F6369"/><path d="M26.26 1.148C25.895.518 25.002 0 24.273 0H9.62c-.73 0-1.622.517-1.987 1.148L3.354 8.56c-.032.478.053.98.266 1.346l2.897 4.955 5.171-8.936h16.353c.386 0 .819.145 1.197.379L26.26 1.148z" fill="#5F6369"/><path fill="#CFCECB" d="M6.517 14.862l5.285 9.039h10.353l5.09-8.99-5.101-8.985H11.688z"/><path d="M3.538 8.238l-.187.326c-.032.479.053.981.265 1.346l2.901 4.952 1.54-2.664-4.519-3.96zM29.433 6.641l-.195-.336c-.375-.23-.807-.38-1.197-.38h-5.893l1.533 2.707 5.752-1.99zM17.844 29.968h.507c.35-.205.651-.485.828-.793l2.986-5.274h-3.177l-1.144 6.067z" fill="#515153"/><path d="M16.937 19.597a4.64 4.64 0 0 1-4.632-4.632 4.64 4.64 0 0 1 4.632-4.633 4.64 4.64 0 0 1 4.633 4.633 4.64 4.64 0 0 1-4.633 4.632z" fill="#FFF"/><path d="M16.937 10.396a4.569 4.569 0 1 1 0 9.137 4.569 4.569 0 0 1 0-9.137zm0-.132a4.704 4.704 0 0 0-4.7 4.7c0 2.593 2.108 4.7 4.7 4.7 2.593 0 4.7-2.107 4.7-4.7 0-2.592-2.107-4.7-4.7-4.7z" fill="#CAC8C6" fill-rule="nonzero"/><path d="M9.999 3.808A.893.893 0 1 1 10 2.02.893.893 0 0 1 10 3.808z" fill="#FFF"/><circle fill="#FFF" cx="23.823" cy="2.915" r="1"/><path d="M9.999 27.776A.893.893 0 1 1 10 25.989.893.893 0 0 1 10 27.776zM23.823 27.776a.893.893 0 1 1 .002-1.787.893.893 0 0 1-.002 1.787zM30.78 15.857a.894.894 0 0 1 0-1.789c.492 0 .892.4.892.893a.89.89 0 0 1-.893.896zM3.028 15.857a.894.894 0 0 1 0-1.789.893.893 0 0 1 0 1.79z" fill="#FFF"/></g></svg>