<?xml version="1.0" encoding="UTF-8"?>
<!DOCTYPE svg PUBLIC "-//W3C//DTD SVG 1.1//EN" "http://www.w3.org/Graphics/SVG/1.1/DTD/svg11.dtd">
<!-- Creator: CorelDRAW 2020 (64-Bit) -->
<svg xmlns="http://www.w3.org/2000/svg" xml:space="preserve" width="17.6388mm" height="16.9332mm" version="1.1" style="shape-rendering:geometricPrecision; text-rendering:geometricPrecision; image-rendering:optimizeQuality; fill-rule:evenodd; clip-rule:evenodd"
viewBox="0 0 1763.88 1693.32"
 xmlns:xlink="http://www.w3.org/1999/xlink"
 xmlns:xodm="http://www.corel.com/coreldraw/odm/2003">
 <defs>
  <style type="text/css">
   <![CDATA[
    .fil0 {fill:#5F6369;fill-rule:nonzero}
   ]]>
  </style>
 </defs>
 <g id="Layer_x0020_1">
  <metadata id="CorelCorpID_0Corel-Layer"/>
  <g id="_1797254970832">
   <path class="fil0" d="M411.47 275.44l972.35 0 0 664.17c-1.9,0.83 -3.74,1.8 -5.52,2.88 -1.65,-1.3 -3.43,-2.48 -5.32,-3.51 -7.13,-3.76 -14.42,-5.51 -21.91,-5.51 -6.3,0 -12.39,1.34 -17.75,4.11 -1.17,-0.96 -2.4,-1.85 -3.69,-2.69l-0.81 -0.5c-4.2,-2.53 -8.71,-4.49 -13.4,-5.89 -2.44,-0.73 -4.94,-1.32 -7.45,-1.73l0 -578.93 -824.09 0 0 492.41c-5.37,0.64 -10.72,1.38 -16.04,2.2 -18.52,2.85 -37.06,6.15 -55.32,10.42l-1.05 0.24 0 -577.67zm972.35 801.75l0 102.78 -486.17 237.91 -486.18 -237.91 0 -41.35c1.81,-1.26 3.58,-2.52 5.28,-3.76 16.12,-11.73 31.21,-25.45 45.41,-39.43 7.48,-7.35 14.72,-14.95 21.72,-22.75l0 59.01 413.77 201.15 410.32 -201.15 0 -29.19c5.69,2.77 12.03,4.22 18.68,4.22 20.24,0 38.78,-14.45 53.68,-29.88 1.15,0.15 2.32,0.27 3.49,0.35zm-972.35 -103.74l0 -2.04c13.98,-3.12 27.52,-9.49 31.5,-23.76 13.57,-2.6 27.21,-4.87 40.91,-6.72l0 1.47c-4.29,7.08 -8.96,14.06 -13.74,20.82l-8.94 0c-7.87,0 -16.58,2.03 -24.19,3.99l-25.54 6.24z"/>
   <path class="fil0" d="M592.93 820.99c-3.53,-1.27 -6.94,-3.03 -10.21,-5.3 -3.28,-2.27 -5.68,-5.17 -7.19,-8.7 -0.5,-1.01 -1.14,-2.71 -1.89,-5.11 -0.76,-2.39 -1.14,-3.72 -1.14,-3.97l0 -330.65c1.26,-6.56 4.54,-12.1 9.84,-16.65 5.3,-4.54 11.35,-6.81 18.16,-6.81l101.39 0c2.26,-0.5 4.66,-0.06 7.19,1.33 2.51,1.39 4.98,3.22 7.37,5.48 2.4,2.27 4.54,4.8 6.43,7.57 1.9,2.78 3.22,5.29 3.97,7.57l0 80.96 -53.71 35.56 0 -88.91 -45.78 0 0 276.17 45.02 0 0 -103.27 -29.51 0 15.89 -51.08 68.09 0 0 206.94 -37.82 0c-0.51,-0.5 -1.27,-2.14 -2.28,-4.92 -1.01,-2.77 -1.64,-4.54 -1.89,-5.29l-27.99 10.21 -56.37 0c-0.51,0 -1.77,-0.06 -3.78,-0.19 -2.02,-0.12 -3.28,-0.44 -3.79,-0.94zm221.69 -377.19l0 378.32 -49.93 0 0 -378.32 49.93 0zm37.83 53.73l0 -53.73 160.03 0 0 53.73 -55.24 0 0 324.59 -51.44 0 0 -324.59 -53.35 0zm287.9 92.68l0 -91.93c0,-0.51 -0.31,-1.07 -0.94,-1.7 -0.63,-0.63 -1.2,-0.95 -1.71,-0.95l-33.66 0c-1.52,0 -2.28,0.89 -2.28,2.65l0 269.36c0,0.51 0.26,1.01 0.76,1.52 0.51,0.5 1.01,0.75 1.52,0.75l33.66 0c0.51,0 1.08,-0.25 1.71,-0.75 0.63,-0.51 0.94,-1.01 0.94,-1.52l0 -91.93 51.07 36.7 0 86.26c0,2.27 -0.75,4.79 -2.26,7.56 -1.52,2.77 -3.41,5.3 -5.68,7.57 -2.27,2.27 -4.73,4.22 -7.37,5.86 -2.65,1.64 -5.11,2.46 -7.38,2.46l-93.45 0c-3.03,0 -6.05,-0.69 -9.08,-2.08 -3.02,-1.39 -5.67,-3.28 -7.94,-5.67 -2.27,-2.4 -4.16,-5.05 -5.68,-7.95 -1.51,-2.9 -2.27,-5.86 -2.27,-8.89l0 -329.13c0,-3.03 0.76,-6.06 2.27,-9.09 1.52,-3.02 3.41,-5.67 5.68,-7.94 2.27,-2.27 4.92,-4.1 7.94,-5.49 3.03,-1.38 6.05,-2.08 9.08,-2.08l93.45 0c2.27,0 4.73,0.82 7.38,2.46 2.64,1.64 5.1,3.59 7.37,5.87 2.27,2.27 4.16,4.79 5.68,7.56 1.51,2.77 2.26,5.3 2.26,7.57l0 85.88 -51.07 37.07z"/>
   <path class="fil0" d="M144.11 1023.26l0 10.47c-11.18,7.11 -20.06,10.69 -26.51,10.69 -3.58,0 -7.32,-0.6 -11.29,-1.76 -9.7,12.23 -18.02,21.22 -24.97,26.95 -6.94,5.67 -13.88,8.54 -20.88,8.54 -8.04,0 -14.27,-4.25 -18.62,-12.73 -4.36,-8.54 -6.57,-19.07 -6.57,-31.63 0,-17.14 5.19,-35.77 15.49,-55.94 10.36,-20.17 22.82,-39.06 37.36,-56.65 14.61,-17.63 28.72,-32.18 42.38,-43.69 13.67,-11.52 22.92,-17.25 27.78,-17.25 4.63,0 6.94,3.2 6.94,9.53 0,28.16 -36.15,77.37 -108.45,147.52 -0.22,1.93 -0.33,5.73 -0.33,11.46 0,14.83 3.97,22.27 11.9,22.27 3.14,0 6.28,-1.27 9.48,-3.81 3.14,-2.53 7.99,-7.32 14.55,-14.43 -2.6,-5.84 -3.86,-10.14 -3.86,-12.96 0,-5.89 2.42,-12.28 7.27,-19.17 4.85,-6.89 10.36,-12.84 16.59,-17.8 6.17,-5.02 10.69,-7.55 13.5,-7.55 4.41,0 6.61,3.2 6.61,9.53 0,4.86 -1.26,10.64 -3.8,17.42 -2.53,6.77 -6.23,14.55 -11.08,23.25 1.83,1.49 3.31,2.59 4.36,3.31 1.1,0.72 2.7,1.05 4.85,1.05 4.96,0 10.74,-2.21 17.3,-6.62zm-82.05 -24.24c5.62,-4.8 11.24,-10.53 16.91,-17.14 5.63,-6.61 13.89,-16.76 24.75,-30.42 10.47,-13.11 18.68,-24.08 24.63,-32.84 6.01,-8.77 10.47,-16.04 13.5,-21.82 3.04,-5.85 4.52,-9.81 4.52,-11.96 0,-1.61 -0.44,-2.43 -1.26,-2.43 -2.37,0 -7.34,3.91 -14.83,11.68 -7.44,7.83 -15.98,18.46 -25.57,32.02 -13.23,18.74 -22.81,32.85 -28.76,42.27 -5.9,9.47 -10.53,19.67 -13.89,30.64zm152.09 30.31l-28.76 24.35c-13.67,11.91 -22.82,17.86 -27.45,17.86 -4.18,0 -8.59,-4.8 -13.22,-14.44 -4.63,-9.65 -6.95,-18.08 -6.95,-25.24 0,-6.17 0.94,-11.35 2.82,-15.6 1.87,-4.24 5.12,-9.75 9.75,-16.53 6.61,-9.15 12.89,-16.91 18.9,-23.25 6.06,-6.34 11.35,-11.24 15.98,-14.77 4.63,-3.47 7.88,-5.24 9.7,-5.24 2.92,0 5.73,1.49 8.49,4.52 2.75,3.04 4.08,6.12 4.08,9.37 0,2.04 -1.44,5.34 -4.41,9.86 -2.98,4.52 -7.67,10.26 -14.05,17.2 -6.4,6.94 -15.32,15.26 -26.73,24.96l-3.09 8.88c-0.82,1.7 -1.27,3.19 -1.27,4.51 0,2.93 1.44,4.36 4.36,4.36 3.03,0 10.08,-3.8 21.22,-11.47 11.18,-7.66 23.25,-17.91 36.26,-30.86 5.07,-5.07 9.25,-9.53 12.61,-13.39 3.31,-3.85 6.34,-7.49 9.04,-10.91 2.7,-3.36 4.9,-5.95 6.67,-7.66 1.76,-1.71 3.36,-2.65 4.8,-2.75 2.7,-0.33 4.79,0.82 6.28,3.41 1.48,2.54 2.25,6.4 2.25,11.41 0,2.92 -1.26,6.56 -3.85,10.91 -2.59,4.35 -7.44,11.79 -14.55,22.27 -7.11,10.52 -14.16,21.38 -21.22,32.62 -7.05,11.24 -14.27,23.91 -21.54,38.02 0.33,-0.33 3.63,-3.58 9.92,-9.7 6.28,-6.11 12.95,-12.51 19.95,-19.17 6.99,-6.67 12.73,-12.02 17.25,-16.04 4.51,-4.02 10.19,-8.76 16.96,-14.11l0 10.8c-14.54,15.6 -27.71,30.37 -39.5,44.37 -11.74,13.99 -20.84,25.18 -27.29,33.55 -6.38,8.38 -10.13,13.29 -11.18,14.66 -2.92,3.8 -5.51,7.33 -7.83,10.59 -2.31,3.3 -4.29,5.78 -5.83,7.6 -1.55,1.76 -2.82,2.64 -3.81,2.64 -2.26,0 -4.24,-2.26 -6.06,-6.72 -1.77,-4.46 -2.64,-8.38 -2.64,-11.85 0,-3.09 0.6,-5.84 1.76,-8.21 7.76,-17.42 25.13,-47.72 52.18,-90.81zm247.05 -35.82l24.35 0c14.11,-18.96 24.86,-35.49 32.25,-49.6 7.38,-14.16 11.07,-23.42 11.07,-27.83 0,-6.11 -5.29,-9.2 -15.81,-9.2 -6.18,0.55 -17.03,1.87 -32.63,3.96 -15.65,2.1 -30.75,4.58 -45.4,7.5 -13.12,2.48 -23.7,5.07 -31.58,7.72 -7.94,2.64 -13.5,4.79 -16.75,6.5 -3.2,1.76 -5.18,2.97 -5.95,3.74 7.98,-0.44 14.71,-0.66 20.17,-0.66 8.65,0 12.95,1 12.95,2.93 0,0.82 -3.04,1.93 -9.04,3.3 -6.06,1.32 -11.74,2.76 -17.14,4.24 -5.29,1.49 -10.42,3.26 -15.43,5.29 -4.96,2.05 -7.99,3.09 -9.09,3.09 -2.49,0 -4.52,-0.94 -6.12,-2.81 -1.6,-1.87 -2.43,-4.19 -2.43,-6.89 0,-1.82 1.49,-6.56 4.47,-14.27 2.92,-7.66 7.1,-15.43 12.51,-23.2 5.34,-7.83 12.01,-13.61 20,-17.36 2.87,-1.38 12.18,-3.91 27.83,-7.6 15.65,-3.64 33.34,-6.94 53.01,-9.98 19.73,-3.03 37.75,-4.52 54.06,-4.52 9.92,0 17.85,1.38 23.81,4.14 6,2.75 8.98,8.59 8.98,17.68 0,2.87 -1.05,7.39 -3.2,13.45 -2.15,6.12 -5.56,13.89 -10.25,23.37 -4.68,9.48 -10.36,19.83 -17.08,31.13 -6.72,11.35 -14.38,23.26 -22.98,35.88l24.85 0 -21.49 30.75c-2.86,0.21 -6.5,0.38 -10.86,0.49 -4.4,0.11 -9.14,0.28 -14.32,0.5 -13.23,17.19 -27.61,33.45 -43.04,48.6 -15.43,15.21 -29.42,27.39 -41.99,36.53 -12.57,9.15 -21.32,13.73 -26.4,13.73 -2.04,0 -3.8,-0.66 -5.34,-2.04 -1.49,-1.33 -2.26,-3.09 -2.26,-5.24 0,-1.81 2.42,-6.5 7.22,-14.05 4.79,-7.55 11.4,-14.6 19.89,-21.16 8.54,-6.56 18.24,-10.25 29.1,-11.02 4.4,-4.63 8.21,-8.71 11.4,-12.35 3.15,-3.58 7.66,-8.81 13.45,-15.64 5.84,-6.84 10.3,-12.13 13.45,-15.77l-48.66 2.43c-5.29,0.22 -8.93,-0.06 -10.91,-0.72 -1.99,-0.71 -2.98,-2.48 -2.98,-5.23 0,0 0.55,-1.38 1.6,-4.14 1.1,-2.75 2.2,-5.12 3.42,-7.16 1.7,-3.14 3.08,-5.01 4.13,-5.62 0.99,-0.66 3.97,-1.54 8.76,-2.59l29.76 -7.27c7.93,-2.04 13.5,-3.03 16.64,-3.03zm180.92 29.15l0 10.8c-7.11,6.45 -12.79,10.75 -17.09,12.95 -4.29,2.15 -10.47,2.97 -18.56,2.53 -13.95,16.59 -26.29,24.91 -36.93,24.91 -6.06,0 -11.51,-1.98 -16.48,-5.95 -4.95,-4.02 -8.92,-9.42 -11.84,-16.31 -2.98,-6.89 -4.47,-14.6 -4.47,-23.09 0,-6.89 2.27,-14.55 6.84,-22.92 4.57,-8.38 10.52,-16.21 17.8,-23.48 7.22,-7.27 14.98,-13.12 23.31,-17.58 8.26,-4.47 15.98,-6.72 23.03,-6.72 5.07,0 9.04,0.77 11.96,2.31 2.92,1.6 4.35,3.75 4.35,6.56 0,2.15 -1.21,4.63 -3.69,7.44 4.08,0.82 6.89,2.26 8.37,4.24 1.5,1.99 2.27,5.62 2.27,10.91 0,5.18 -1.21,11.68 -3.64,19.51 -2.43,7.88 -5.73,15.21 -9.92,22.1l2.92 2.92 2.43 0c1.81,0 3.64,-0.5 5.4,-1.38 1.76,-0.93 3.36,-1.87 4.74,-2.92 1.43,-0.99 4.46,-3.31 9.2,-6.83zm-33.23 -42.38c-8.93,5.35 -16.53,10.25 -22.93,14.6 -6.33,4.35 -11.68,8.77 -16.14,13.23 -4.41,4.46 -7.33,8.93 -8.88,13.44 -2.69,12.02 -4.02,18.52 -4.02,19.51 0,7.11 4.96,10.64 14.88,10.64 4.63,0 12.35,-3.97 23.26,-11.91 -1.82,-5.07 -2.76,-9.91 -2.76,-14.54 0,-6.78 1.38,-13.67 4.19,-20.72 2.81,-7.06 6.94,-15.1 12.4,-24.25zm32.35 47.28l0 -3.91c27.77,-29.26 46.84,-49.76 57.31,-61.5 2.37,-13.28 8.04,-19.89 17.08,-19.89 2.26,0 4.69,0.66 7.27,1.92l1 3.09c-0.44,1.27 -0.67,3.14 -0.67,5.51 0,2.04 0.77,5.84 2.38,11.35 1.53,5.57 2.75,10.25 3.63,14 0.83,3.75 1.27,8.05 1.27,12.79 0,7.1 -1.6,13.88 -4.85,20.39 -3.25,6.55 -7.94,12.78 -14.05,18.79 -6.12,5.95 -14.06,12.06 -23.75,18.29 3.86,0.66 6.94,0.99 9.2,0.99 4.4,0 9.2,-1.1 14.33,-3.3 5.07,-2.21 10.3,-5.18 15.65,-8.88 5.34,-3.74 11.52,-8.54 18.62,-14.44l0 10.81c-13.77,13.44 -26.06,23.58 -36.98,30.53 -10.85,6.94 -20.22,10.41 -28.04,10.41 -10.15,0 -19.51,-4.3 -28.11,-12.89 -5.07,-5.18 -8.21,-10.14 -9.48,-14.83 -1.21,-4.73 -1.81,-11.18 -1.81,-19.23zm60.17 -24.69l-2.92 -23.58c-6.67,7.55 -20.88,22.04 -42.76,43.42 6.45,1.43 10.85,3.31 13.23,5.68 2.37,2.37 5.73,6.94 10.03,13.72 7.32,-3.03 12.95,-7.11 16.86,-12.34 3.91,-5.24 5.89,-12.35 5.89,-21.39 0,-1.1 0,-2.09 -0.05,-2.92 -0.06,-0.88 -0.17,-1.71 -0.28,-2.59zm42.98 24.69l0 -3.91c27.78,-29.26 46.84,-49.76 57.32,-61.5 2.37,-13.28 8.04,-19.89 17.08,-19.89 2.26,0 4.68,0.66 7.27,1.92l0.99 3.09c-0.44,1.27 -0.66,3.14 -0.66,5.51 0,2.04 0.77,5.84 2.37,11.35 1.54,5.57 2.76,10.25 3.64,14 0.82,3.75 1.27,8.05 1.27,12.79 0,7.1 -1.6,13.88 -4.85,20.39 -3.26,6.55 -7.94,12.78 -14.06,18.79 -6.11,5.95 -14.05,12.06 -23.75,18.29 3.86,0.66 6.94,0.99 9.21,0.99 4.4,0 9.2,-1.1 14.32,-3.3 5.07,-2.21 10.31,-5.18 15.65,-8.88 5.35,-3.74 11.52,-8.54 18.63,-14.44l0 10.81c-13.77,13.44 -26.06,23.58 -36.98,30.53 -10.85,6.94 -20.22,10.41 -28.05,10.41 -10.14,0 -19.5,-4.3 -28.1,-12.89 -5.07,-5.18 -8.21,-10.14 -9.48,-14.83 -1.21,-4.73 -1.82,-11.18 -1.82,-19.23zm60.18 -24.69l-2.92 -23.58c-6.67,7.55 -20.88,22.04 -42.76,43.42 6.44,1.43 10.85,3.31 13.22,5.68 2.37,2.37 5.73,6.94 10.03,13.72 7.33,-3.03 12.95,-7.11 16.87,-12.34 3.91,-5.24 5.89,-12.35 5.89,-21.39 0,-1.1 0,-2.09 -0.05,-2.92 -0.06,-0.88 -0.17,-1.71 -0.28,-2.59zm152.43 -9.09c-18.96,21.11 -28.44,35.82 -28.44,44.08 0,4.64 1.87,6.95 5.67,6.95 3.09,0 7.17,-1.66 12.18,-4.96 5.02,-3.25 12.84,-9.09 23.48,-17.47l0 11.08c-15.27,15.1 -27,26.01 -35.16,32.68 -8.21,6.67 -14.88,10.03 -20.06,10.03 -8.81,0 -13.23,-5.85 -13.23,-17.47 0,-3.42 0.56,-6.84 1.6,-10.14 1.11,-3.36 2.59,-6.84 4.47,-10.42 1.87,-3.64 4.73,-8.76 8.65,-15.48 3.86,-6.78 8.32,-14.39 13.39,-22.87 -6.12,3.14 -13.83,9.31 -23.09,18.52 -6.06,5.83 -11.13,11.35 -15.38,16.58 -4.18,5.24 -8.65,11.02 -13.44,17.41 -4.8,6.45 -8.32,10.75 -10.53,12.95 -2.2,2.21 -4.41,3.31 -6.66,3.31 -3.48,0 -6.62,-3.58 -9.54,-10.8 -2.92,-7.22 -4.35,-15.65 -4.35,-25.24 0,-5.9 0.66,-10.53 2.04,-13.89 1.32,-3.3 3.97,-8.04 7.99,-14.21 7.38,-11.41 13.83,-19.79 19.18,-25.13 5.4,-5.29 10.58,-7.99 15.48,-7.99 3.47,0 6.23,0.6 8.32,1.76 2.09,1.21 3.15,3.03 3.15,5.51 0,1.1 -0.28,2.21 -0.94,3.42 -0.67,1.21 -1.38,2.26 -2.21,3.25 -0.77,0.94 -2.48,2.87 -5.07,5.62 -16.97,18.85 -25.46,31.08 -25.46,36.65 0,3.14 1.05,4.68 3.09,4.68 1.27,0 3.75,-2.09 7.49,-6.22 3.7,-4.14 8.49,-9.59 14.33,-16.32 5.9,-6.72 12.84,-13.72 20.83,-21.05 8.05,-7.33 17.14,-14.38 27.34,-21.16 5.73,-4.02 10.46,-6.01 14.21,-6.01 1.76,0 3.42,2.38 5.12,7.11 1.66,4.74 2.49,9.53 2.49,14.44 0,2.37 -2.32,5.95 -6.94,10.8zm37.74 35.05l0 4.02c0,6.34 1.54,11.3 4.68,14.82 3.15,3.59 7.22,5.35 12.3,5.35 5.23,0 10.74,-1.21 16.36,-3.69 5.68,-2.48 11.3,-5.79 16.86,-9.86 5.62,-4.08 12.46,-9.59 20.5,-16.49l0 9.87c-12.12,14.6 -23.53,25.85 -34.22,33.61 -10.63,7.78 -21.43,11.69 -32.45,11.69 -9.54,0 -17.15,-3.69 -22.77,-11.13 -5.56,-7.44 -8.37,-17.58 -8.37,-30.53 0,-11.3 2.64,-21.55 7.93,-30.75 5.24,-9.2 13.84,-18.9 25.79,-29.1 8.22,-7 16.31,-12.29 24.41,-15.81 8.05,-3.58 15.27,-5.35 21.61,-5.35 5.06,0 9.09,1.16 12.01,3.48 2.98,2.31 4.47,5.78 4.47,10.41 0,6.77 -2.54,13.55 -7.61,20.28 -5.07,6.72 -12.78,13.39 -23.14,20.06 -10.42,6.61 -23.21,13 -38.36,19.12zm1.6 -10.47c9.7,-3.81 17.96,-8.49 24.85,-14.05 6.89,-5.57 11.96,-10.97 15.27,-16.04 3.25,-5.13 4.9,-8.87 4.9,-11.24 0,-2.48 -1.1,-3.69 -3.36,-3.69 -1.98,0 -5.12,1.21 -9.48,3.69 -4.35,2.48 -8.76,5.73 -13.22,9.69 -4.47,3.98 -8.44,8.66 -12.02,14.06 -3.52,5.34 -5.84,11.24 -6.94,17.58zm125.75 -79.08l6.95 0c5.73,-10.25 10.85,-17.47 15.48,-21.71 4.63,-4.24 9.92,-6.39 15.82,-6.39 5.95,0 8.93,1.37 8.93,4.02 0,1.32 -2.32,4.79 -6.95,10.52 -4.63,5.68 -8.15,10.48 -10.52,14.39 3.63,0.39 6.94,0.77 9.75,1.1 2.86,0.33 5.13,0.6 6.72,0.82 -6.11,11.36 -13.83,22.99 -23.09,34.89 -3.02,-0.22 -5.56,-0.39 -7.6,-0.55 -2.04,-0.17 -4.08,-0.33 -6.23,-0.5 -2.09,-0.17 -4.63,-0.33 -7.66,-0.55 -5.78,9.37 -10.69,17.75 -14.6,25.13 -3.91,7.38 -6.95,14.16 -9.04,20.33 -2.09,6.12 -3.14,11.96 -3.14,17.42 0,7.44 2.98,11.18 8.87,11.18 4.08,0 9.48,-2.2 16.09,-6.55 6.62,-4.36 15.43,-11.03 26.57,-20.07l0 10.75c-29.1,31.52 -50.59,47.28 -64.48,47.28 -4.85,0 -8.76,-1.87 -11.68,-5.62 -2.98,-3.8 -4.47,-8.65 -4.47,-14.54 0,-3.97 0.83,-8.71 2.48,-14.17 1.71,-5.51 4.69,-13.77 8.99,-24.85 -1.49,1.32 -2.92,2.53 -4.25,3.8 -1.38,1.21 -2.59,2.37 -3.74,3.36 -1.11,1.05 -2.32,2.1 -3.64,3.26 -1.27,1.1 -2.59,2.25 -3.86,3.46l0 -11.18c11.3,-9.48 24.96,-26.12 41.05,-49.98 -1.65,-0.06 -3.14,-0.17 -4.57,-0.22 -1.37,-0.06 -3.03,-0.06 -4.96,-0.06 -6.39,0 -11.13,0.39 -14.22,1.27 -1.32,0.33 -2.53,0.66 -3.63,1.05 -1.16,0.39 -1.93,0.55 -2.37,0.55 -0.44,0 -0.66,-0.33 -0.66,-0.94 0,-3.52 2.2,-8.81 6.66,-15.87 3.53,-6.01 6.89,-10.47 10.09,-13.39 3.2,-2.92 7.06,-4.91 11.63,-5.9 4.57,-1.04 11.02,-1.54 19.28,-1.54zm24.09 97.87l0 -11.96c5.95,-6.22 12.01,-14.93 18.29,-26.12 -6.06,-0.83 -9.09,-3.25 -9.09,-7.22 0,-3.36 2.04,-7.65 6.06,-12.89 4.08,-5.29 8.82,-10.03 14.22,-14.22 5.46,-4.19 9.7,-6.28 12.84,-6.28 3.52,0 5.35,1.43 5.35,4.35 0,1.16 -0.34,1.93 -0.99,2.21 -0.89,0.55 -1.28,1.48 -1.28,2.75 0,1.05 0.83,1.6 2.54,1.6 5.4,0 12.12,-1.1 20.22,-3.31 8.16,-2.2 13.67,-3.3 16.7,-3.3 2.48,0 4.13,2.31 5.02,6.94 2.25,12.29 3.36,19.23 3.36,20.83 0,1.54 -0.66,2.92 -2.04,4.3 -1.32,1.32 -5.07,4.02 -11.25,7.99 -6.16,3.97 -11.89,7.83 -17.18,11.57 -5.24,3.69 -12.07,8.87 -20.45,15.54 5.79,2.7 10.03,5.73 12.67,9.09 2.65,3.31 4.91,8.43 6.84,15.32l40.28 -31.74 0 10.8 -40.61 32.79c-1.05,10.36 -4.63,20.83 -10.69,31.52 -6.12,10.64 -13.18,20.23 -21.28,28.71 -8.04,8.55 -16.09,15.49 -24.08,20.94 -7.93,5.46 -13.77,8.16 -17.41,8.16 -3.58,0 -6.01,-1.16 -7.44,-3.47 -1.38,-2.32 -2.09,-5.68 -2.09,-10.08 0,-6.35 1.37,-12.41 4.13,-18.08 2.75,-5.73 6.72,-11.41 11.96,-17.03 5.18,-5.68 11.52,-11.41 18.9,-17.3 7.38,-5.85 17.19,-12.95 29.48,-21.39 -1.21,-7.6 -3.2,-12.39 -6.01,-14.27 -2.75,-1.87 -7.05,-3.75 -12.78,-5.62 -5.79,-1.93 -8.65,-4.74 -8.65,-8.49 0,-4.18 20.17,-20.27 60.5,-48.27 -6.45,1.27 -14.05,2.7 -22.76,4.3 -8.7,1.54 -16.97,2.64 -24.85,3.31 -5.45,8.7 -10.69,16.31 -15.65,22.86 -4.96,6.56 -9.2,11.63 -12.78,15.16zm41.33 46.29c-7.72,5.34 -15.21,11.41 -22.43,18.13 -7.22,6.72 -13.45,13.11 -18.69,19.12 -5.23,6.01 -7.81,9.64 -7.81,10.97 0,2.48 1.09,3.69 3.24,3.69 3.86,0 8.87,-2.15 15,-6.45 6.16,-4.3 12.11,-10.47 17.96,-18.46 5.78,-7.99 10.08,-17.03 12.73,-27zm144.76 -41.38c0,4.85 1.82,7.32 5.51,7.32 4.74,0 13.06,-8.04 24.91,-24.08 -0.44,-2.97 -0.66,-5.01 -0.66,-5.95 0,-5.84 2.31,-12.9 6.94,-21.33 4.63,-8.37 9.98,-15.7 15.98,-21.93 6.06,-6.23 10.64,-9.37 13.72,-9.37 3.81,0 5.68,4.52 5.68,13.56 0,7.38 -1.6,14.72 -4.74,21.88 -3.19,7.22 -7.83,14.6 -13.83,22.1 0.93,0.99 2.04,1.98 3.2,2.97 1.21,1.04 2.48,1.88 3.8,2.59 1.37,0.72 2.81,1.05 4.29,1.05 3.59,0 8.11,-2.87 13.57,-8.54l0 11.46c-8.49,8.87 -15.88,13.28 -22.1,13.28 -3.7,0 -6.56,-0.44 -8.65,-1.38 -2.1,-0.93 -4.8,-2.59 -8,-4.96 -19.83,23.81 -34.88,35.71 -45.24,35.71 -3.97,0 -7.11,-1.48 -9.42,-4.47 -2.32,-2.97 -3.48,-7.05 -3.48,-12.34 0,-2.59 1.06,-12.28 3.2,-29.09 -4.19,4.85 -9.09,10.58 -14.66,17.13 -5.62,6.56 -10.14,11.63 -13.55,15.1 -3.47,3.53 -6.67,6.23 -9.59,8.16 -2.98,1.93 -5.95,2.92 -8.98,2.92 -2.92,0 -6.4,-1.82 -10.42,-5.51 -4.02,-3.64 -7.44,-8.48 -10.25,-14.61 -2.81,-6.06 -4.19,-12.61 -4.19,-19.61 0,-6.78 0.99,-12.57 2.92,-17.42 1.93,-4.84 6.34,-12.12 13.23,-21.82 6.23,-8.59 11.79,-15.65 16.64,-21.16 4.85,-5.45 9.2,-9.69 13.12,-12.73 3.96,-3.03 7.16,-4.52 9.64,-4.52 1.49,0 3.47,0.34 5.9,1.05 2.37,0.72 4.52,1.65 6.44,2.81 1.88,1.21 2.82,2.43 2.82,3.75 0,4.08 -1.83,9.26 -5.41,15.48 -3.63,6.29 -8.98,13.29 -16.09,21 -7.05,7.77 -15.21,15.7 -24.35,23.75 -2.48,7.44 -3.7,13.5 -3.7,18.13 0,1.49 0.44,2.92 1.38,4.24 0.88,1.38 2.04,2.04 3.31,2.04 4.4,0 12.89,-6.88 25.4,-20.66 12.57,-13.78 29.1,-34.72 49.65,-62.72 0.78,-1.04 2.37,-1.59 4.86,-1.59 2.69,0 5.12,0.6 7.32,1.76 2.2,1.21 3.31,2.81 3.31,4.85 0,1.21 -2.82,7.49 -8.49,18.9 -5.67,11.41 -10.58,21.88 -14.71,31.42 -4.14,9.52 -6.23,16.64 -6.23,21.38zm103.55 -13.23l0 4.02c0,6.34 1.54,11.3 4.68,14.82 3.14,3.59 7.22,5.35 12.29,5.35 5.23,0 10.75,-1.21 16.37,-3.69 5.67,-2.48 11.29,-5.79 16.86,-9.86 5.62,-4.08 12.45,-9.59 20.5,-16.49l0 9.87c-12.12,14.6 -23.53,25.85 -34.22,33.61 -10.64,7.78 -21.44,11.69 -32.46,11.69 -9.53,0 -17.14,-3.69 -22.76,-11.13 -5.57,-7.44 -8.37,-17.58 -8.37,-30.53 0,-11.3 2.64,-21.55 7.93,-30.75 5.24,-9.2 13.83,-18.9 25.79,-29.1 8.21,-7 16.31,-12.29 24.41,-15.81 8.05,-3.58 15.27,-5.35 21.61,-5.35 5.06,0 9.09,1.16 12.01,3.48 2.97,2.31 4.46,5.78 4.46,10.41 0,6.77 -2.53,13.55 -7.6,20.28 -5.07,6.72 -12.79,13.39 -23.15,20.06 -10.41,6.61 -23.2,13 -38.35,19.12zm1.59 -10.47c9.71,-3.81 17.97,-8.49 24.86,-14.05 6.89,-5.57 11.96,-10.97 15.26,-16.04 3.26,-5.13 4.91,-8.87 4.91,-11.24 0,-2.48 -1.11,-3.69 -3.36,-3.69 -1.99,0 -5.13,1.21 -9.49,3.69 -4.35,2.48 -8.75,5.73 -13.22,9.69 -4.46,3.98 -8.43,8.66 -12.01,14.06 -3.53,5.34 -5.84,11.24 -6.95,17.58zm67.46 17.13l0 -10.52c5.78,-6.89 10.19,-12.73 13.22,-17.58 -3.47,-1.21 -5.95,-2.65 -7.49,-4.41 -1.6,-1.7 -2.37,-4.3 -2.37,-7.71 0,-3.91 1.65,-8.82 4.85,-14.71 3.25,-5.95 7.22,-11.52 11.96,-16.7 4.74,-5.18 9.04,-8.49 12.89,-10.03 1.54,-0.72 2.98,-1.1 4.41,-1.1 2.15,0 3.25,0.99 3.25,3.08 0,1.82 -1.71,5.51 -5.07,11.14 22.21,-3.48 36.2,-5.19 42.05,-5.19 2.26,0 3.8,0.22 4.68,0.66 1.82,0.94 3.31,3.2 4.52,6.78 1.16,3.58 1.76,7.11 1.76,10.7 0,2.25 -0.99,4.68 -2.97,7.32 -1.98,2.65 -5.4,6.5 -10.25,11.58 -5.73,6.17 -10.47,12.84 -14.39,20.05 -3.85,7.22 -5.78,12.68 -5.78,16.32 0,5.06 3.14,7.6 9.37,7.6 6.56,0 17.96,-6.67 34.22,-20.06l0 10.86c-8.99,9.31 -16.37,16.7 -22.15,22.04 -5.85,5.4 -11.19,9.64 -16.15,12.84 -4.96,3.14 -9.37,4.74 -13.28,4.74 -4.52,0 -8.27,-2.09 -11.3,-6.23 -3.03,-4.13 -4.52,-10.14 -4.52,-17.96 0,-4.63 1.22,-9.92 3.59,-15.82 2.37,-5.95 5.83,-12.34 10.41,-19.29 4.57,-6.94 9.7,-13.88 15.43,-20.77 -3.03,0.66 -6.39,1.32 -10.2,2.04 -3.74,0.71 -7.71,1.43 -11.95,2.2 -4.19,0.72 -7.44,1.32 -9.7,1.77 -6.67,13.39 -16.37,25.51 -29.04,36.36zm219.99 -12.45l0 10.86c-12.07,14.11 -22.15,24.74 -30.37,32.02 -8.15,7.27 -14.99,10.91 -20.5,10.91 -5.29,0 -10.03,-1.55 -14.27,-4.69 -4.24,-3.14 -8.1,-7.44 -11.46,-12.9 -3.42,-5.51 -7.44,-13.16 -12.07,-22.91 -5.46,6.77 -10.42,13.05 -14.88,18.95 -4.41,5.84 -7.49,9.75 -9.2,11.68 -1.71,1.93 -3.31,2.92 -4.69,2.92 -2.91,0 -5.01,-1.87 -6.33,-5.56 -1.27,-3.69 -1.93,-9.15 -1.93,-16.26 0,-9.64 1.15,-19.01 3.47,-27.99 2.32,-8.98 5.68,-17.75 10.03,-26.23 4.35,-8.49 9.97,-17.7 16.81,-27.5 6.83,-9.87 14.49,-20.17 23.03,-30.92 11.74,-14.87 21.88,-27 30.36,-36.42 8.49,-9.42 15.93,-16.53 22.21,-21.33 6.29,-4.79 11.58,-7.17 15.76,-7.17 5.18,0 7.77,2.32 7.77,6.95 0,3.97 -9.53,18.29 -28.6,43.04 -19.06,24.68 -46.84,58.36 -83.32,101.12l0 13.88c24.41,-26.17 44.09,-45.62 59.02,-58.29 14.93,-12.73 26.45,-19.07 34.67,-19.07 3.3,0 5.89,1.98 7.71,5.9 1.81,3.91 2.75,8.48 2.75,13.66 0,10.52 -4.52,20.28 -13.55,29.32 -9.04,8.98 -22.98,19.28 -41.72,30.91 3.25,4.85 6.12,8.38 8.6,10.58 2.48,2.21 5.56,3.31 9.37,3.31 3.3,0 6.94,-1.16 10.8,-3.42 3.86,-2.26 7.82,-5.07 11.9,-8.54 4.02,-3.42 10.25,-9.04 18.63,-16.81zm-63.82 8.27c4.14,-2.7 9.21,-6.89 15.27,-12.56 6.11,-5.63 11.3,-11.52 15.59,-17.64 4.3,-6.06 6.45,-11.19 6.45,-15.26 0,-1.71 -0.77,-2.59 -2.26,-2.59 -4.08,0 -11.13,3.91 -21.05,11.79 -9.97,7.88 -19.67,17.97 -29.15,30.25 4.07,0 9.14,1.98 15.15,6.01z"/>
  </g>
 </g>
</svg>
