<?xml version="1.0" encoding="UTF-8"?>
<!DOCTYPE svg PUBLIC "-//W3C//DTD SVG 1.1//EN" "http://www.w3.org/Graphics/SVG/1.1/DTD/svg11.dtd">
<!-- Creator: CorelDRAW 2020 (64-Bit) -->
<svg xmlns="http://www.w3.org/2000/svg" xml:space="preserve" width="16.9332mm" height="16.9332mm" version="1.1" style="shape-rendering:geometricPrecision; text-rendering:geometricPrecision; image-rendering:optimizeQuality; fill-rule:evenodd; clip-rule:evenodd"
viewBox="0 0 1693.32 1693.32"
 xmlns:xlink="http://www.w3.org/1999/xlink"
 xmlns:xodm="http://www.corel.com/coreldraw/odm/2003">
 <defs>
  <style type="text/css">
   <![CDATA[
    .fil0 {fill:#5F6369}
   ]]>
  </style>
 </defs>
 <g id="Layer_x0020_1">
  <metadata id="CorelCorpID_0Corel-Layer"/>
  <path class="fil0" d="M43.28 221.92l0 1292.58c0,18.37 6.88,43.05 13.72,60.21 5.13,12.85 20.93,34.52 30.84,44.42 19.66,19.63 41.35,34.32 69.58,41.33 9.18,2.27 22.36,5.87 32.41,5.87l1303.15 0c19.27,0 47.81,-8.69 61.19,-15.39 19.38,-9.71 29.32,-17.74 44.1,-32.47 27.08,-26.99 43.9,-68.2 43.9,-109.26l0 -1280.69c0,-19.23 -3.49,-36 -8.47,-53.58 -4.84,-17.06 -18.92,-40.62 -30.78,-53.73 -10.06,-11.12 -21.34,-21.12 -34.25,-29.12 -30.75,-19.06 -62.03,-24.65 -102.1,-24.65l-1241.09 0c-29.5,0 -51.19,1.91 -74.41,8.77 -17.87,5.27 -41.67,18.49 -54.01,30.48 -2.16,2.1 -3.05,3.17 -5.33,5.23l-14.98 16.72c-1.93,2.54 -0.91,1.08 -2.39,2.89l-6.54 9.3c-14.47,22.17 -24.54,55.28 -24.54,81.09zm138.93 -129.77c-52.81,6.72 -92.35,43.79 -108.02,86.77 -10.47,28.73 -8.21,55.58 -8.21,87.89l0 1164.51c0,27.37 -2.53,70.94 1.17,96.25 7.96,54.56 41.73,90.35 86.16,107.91 27.49,10.87 56.46,8.54 88.02,8.54 388.61,0 777.22,0 1165.83,0 27.44,0 71.54,2.49 96.6,-1.34 54.16,-8.28 91.22,-43.45 107.25,-86.54 10.49,-28.19 8.23,-55.85 8.23,-87.86l0 -1164.51c0,-28.96 2.24,-68.68 -1.19,-96.28 -6.69,-53.72 -44.21,-92.64 -85.79,-107.97 -29.6,-10.9 -54.35,-8.84 -88.14,-8.84 -388.61,0 -777.22,0 -1165.83,0 -29.36,0 -68.14,-2.08 -96.08,1.47z"/>
  <path class="fil0" d="M820.75 1505.1l31.83 0.13 -0.06 -64.35c15.3,0.09 18.74,24.52 25.57,45.39 1.95,5.95 4.89,12.6 6.11,18.69 7.75,0.58 29.76,1.28 36.44,-0.58 -3.69,-5.32 -13.44,-43.57 -19.04,-54.59 -4.6,-9.08 -4.75,-8.06 -11.81,-14.51 4.18,-4.8 15.82,-6.68 20.97,-29.16 3.38,-14.77 1.49,-32.57 -4.13,-44.68 -6.24,-13.47 -16.92,-16.03 -34.19,-16.52 -15.74,-0.45 -36.15,-0.89 -51.65,0.17l-0.04 160.01zm31.75 -95.06c14.88,0.61 27.58,0.78 27.91,-15.69 0.38,-19.02 -11.55,-16.9 -27.86,-16.24l-0.05 31.93z"/>
  <path class="fil0" d="M412.79 1505.08l29.36 0.15 0.04 -84.59c6.63,5.75 28.78,69.28 38.11,84.32l29.32 0.32 0.12 -160.44 -29.62 0.05 -0.01 85.44c-2.26,-2.1 -34.52,-74.1 -37.57,-85.37l-29.7 -0.05 -0.05 160.17z"/>
  <path class="fil0" d="M386.92 1344.87c-8.47,-0.05 -24.04,-1.43 -31.45,1.01 0.03,23.2 0.02,46.4 0.02,69.59 0,18.67 4.11,55.79 -17.77,54.89 -20.81,-0.87 -16.77,-36.26 -16.77,-53.57 0,-23.95 -0.11,-47.94 0.02,-71.89l-31.23 -0.01c-0.62,31.79 -2.04,74.17 0.18,104.96 2.38,32.94 12.8,57.06 47.74,58.19 34.83,1.12 46.5,-24.83 48.94,-56.87 2.43,-31.94 0.48,-73.43 0.32,-106.3z"/>
  <path class="fil0" d="M1186.04 1504.29c7.27,2.31 24,0.93 32.48,0.99l5.27 -26.19 34.95 -0.04 4.87 25.84 32.96 0.39c-1.27,-11.06 -23.58,-99.19 -28.17,-120.04l-8.95 -37.13c-1.46,-3.8 -0.53,-1.61 -1.49,-3.1 -39.69,-0.24 -32.64,-5.24 -38.25,18.88l-33.67 140.4zm44.45 -60.71l20.6 0.5c0.83,-6.12 -7.68,-45.94 -9.74,-54.55l-10.86 54.05z"/>
  <path class="fil0" d="M711.83 1504.77l85.57 0.51 0.03 -36.1 -53.47 -0.33 -0.7 -31 48.34 -0.2 0.4 -32.84 -48.59 -0.08 -0.06 -24.81 52.2 -0.4c1.14,-6.92 1.43,-28.27 -0.25,-34.71l-82.99 0.06 -0.48 159.9z"/>
  <path class="fil0" d="M1309.02 1387.75c0,16.73 3.49,29.37 14.36,38.9 11.48,10.07 19.67,9.68 33.08,17.16 16.18,9.03 10.62,28.55 1.05,31.63 -18.55,5.97 -19.04,-14.74 -22.97,-25.62l-29.31 2.27c-1.65,65.66 61.05,66.1 79.82,41.64 8.99,-11.73 12.21,-25 12.2,-42.61 -0.05,-66.18 -77.88,-39.93 -53.98,-78.02 16.83,-1.9 18.02,5.36 20.92,19.57 4.91,0.29 9.52,-0.36 14.11,-0.79 2.36,-0.22 4.98,-0.34 7.26,-0.58l7.91 -2.23c-0.23,-27.48 -12.85,-46.74 -41.77,-46.74 -27.21,0 -42.69,17.18 -42.68,45.42z"/>
  <path class="fil0" d="M958.25 1449.95l-29.44 2.1c-0.53,14.53 4,28.37 9.87,38.48 6.36,10.96 15.54,16.2 30.21,17.33 57.24,4.41 58.51,-60.42 44.51,-85.53 -15.61,-27.99 -61.2,-19.52 -50.17,-44.11 1.59,-3.55 18.89,-17.48 24.46,14.62 13.94,0.03 26.31,-1.84 29.53,-3.77 -1.17,-31.07 -15.79,-49.33 -48.46,-46.53 -27.72,2.37 -40.53,29.09 -35.14,59.51 5.93,33.5 37.87,34.46 49.75,43.71 9.65,7.5 9.47,27.67 -4.31,30.11 -16.34,2.89 -16.97,-14 -20.81,-25.92z"/>
  <path class="fil0" d="M624.21 1504.86c6.12,0.7 23.17,1.06 29.27,0.55 6.83,-0.58 5.25,-0.31 6.76,-7.86l13.66 -58.63c3.13,-13.29 21.98,-87.79 21.01,-94.06l-30.45 0 -22.62 112.4 -23.25 -112.49 -32 0.1c-0.47,3.15 34.35,153.42 37.62,159.99z"/>
  <path class="fil0" d="M1092.91 1385l31.21 0.3 0.18 119.8 31.31 0.18 0.02 -119.55 31.85 -0.68 0.03 -40.09 -94.08 -0.11c-1.94,6.85 -1.28,32.02 -0.52,40.15z"/>
  <path class="fil0" d="M536.78 1505.09l31.44 0.05 -0.09 -159.32c-6.67,-2.15 -23.69,-1.31 -31.26,-0.62l-0.09 159.89z"/>
  <polygon class="fil0" points="1042.81,1504.94 1074.2,1505.19 1074.08,1345.12 1043.49,1344.86 "/>
  <path class="fil0" d="M427.49 758.91c-7.07,0.94 -18.68,-3.48 -25.6,-4.99 1.97,6.56 11.77,14.02 15.61,19.88l-12.42 22.46 23.6 -9.18c7.26,5.75 10.45,13.52 18.1,19.47l-2.41 -26.55 17 -6.53c1.43,-0.6 1.76,-0.74 2.69,-1.26 0.36,-0.2 1.43,-0.9 1.73,-1.1 0.25,-0.16 0.65,-0.49 0.85,-0.63 0.19,-0.13 0.57,-0.41 0.84,-0.64 -6.06,-3.36 -18.31,-2.59 -23.66,-7.12 -3.4,-4.65 -1.99,-17.98 -2.9,-24.92 -2.05,0.77 -11.25,16.88 -13.43,21.11z"/>
  <path class="fil0" d="M318.26 784.42c16.94,281.17 257.94,508.6 556.78,491.62 278.59,-15.84 510.58,-257.49 492.07,-557.25 -4.9,-79.21 -26.87,-147.53 -56.4,-206.35 -13.77,-27.43 -34.3,-59.03 -50.54,-80.12 -16.03,-20.8 -43.03,-51.25 -63.23,-68.85 -50.76,-44.25 -97.99,-75.6 -161.9,-101.03 -64.2,-25.55 -145.27,-40.84 -223.73,-35.31 -106.82,7.52 -207.19,44.12 -286.82,106.33 -49.05,38.31 -93.36,83.8 -125.83,136.9 -57.55,94.13 -87.52,195.88 -80.4,314.06zm552.9 472.46c-276.01,15.9 -517.25,-193.54 -533.95,-479.15 -4.32,-73.85 10.5,-156.06 35.94,-215.43 13.27,-30.98 26.63,-58.51 43.2,-83.55 15.93,-24.08 36.71,-52.82 54.67,-70.72 21.14,-21.08 39.47,-39.86 66.48,-60.24 78.3,-59.09 172.56,-95.6 278.04,-101.48 109.33,-6.1 213.1,23.47 299.62,78.84 31.87,20.39 38.02,26.87 63.07,47.8 22.6,18.9 50.52,50.12 68.58,73.97 58.28,76.97 96.68,176.11 101.34,276.77 13.24,286.01 -202.16,517.36 -476.99,533.19z"/>
  <path class="fil0" d="M396.26 975.48c90.9,177.26 270.9,285.26 473.58,274.61 266.55,-14.01 487.19,-241.65 471.34,-526.46 -5.77,-103.75 -42.34,-196.4 -100.29,-273.4 -26.78,-35.58 -58.09,-66.42 -93.35,-94.11 -90.45,-71.02 -211.63,-110.1 -331.69,-102.99 -100.47,5.94 -195.88,39.86 -274.32,100.01 -26.73,20.5 -44.38,37.75 -65.85,59.59 -15.97,16.25 -41.91,51.08 -54.13,70.04 -16.29,25.27 -29.76,51.63 -42.43,82.82 -52.87,130.08 -46.71,285.39 17.14,409.89zm106.73 128.31c-84.3,-85.03 -135.87,-183.08 -147.72,-308.92 -13.14,-139.58 34.8,-266.43 120.29,-366.94 76.76,-90.24 197.96,-153.21 325.3,-164.2 107.33,-9.26 209.33,16.77 296.14,69.13 73.86,44.56 136.45,110.63 177.84,187.93 99.72,186.25 64.08,411.03 -64.83,554.46 -29.92,33.28 -60.4,60.71 -98.2,85.36 -132.12,86.15 -291.12,103.69 -439.44,49.73 -29.85,-10.86 -57.5,-25.35 -82.79,-39.95 -25.84,-14.9 -66.09,-45.92 -86.59,-66.6z"/>
  <path class="fil0" d="M501.44 777.76c14.3,187.65 179.36,330.25 367.71,315.08 99.71,-8.04 178.99,-57 228.73,-113.4 55.33,-62.74 93.18,-146.81 85.61,-255.78 -4.03,-58.02 -25.19,-114.01 -53.64,-158.34 -16.75,-26.09 -38.94,-50.29 -60.01,-69.44 -56.22,-51.1 -145.87,-93.16 -253.28,-85.28 -180.23,13.23 -330.09,170.71 -315.12,367.16zm120.79 222.46c-30.15,-29.77 -52.53,-52.17 -73.28,-93.14 -111.38,-219.93 32.38,-465.51 266.43,-486.57 103.25,-9.28 190.23,31.88 248.19,82.88 135.43,119.16 150.23,335.57 27.28,469.03 -20.07,21.78 -42.58,42.15 -67.5,57.88 -46.27,29.2 -91.69,47.43 -153.53,52.44 -49.59,4.02 -102.91,-3.56 -143.78,-19.87 -34.79,-13.89 -77.83,-37 -103.81,-62.65z"/>
  <path class="fil0" d="M467.48 769.84c-6.06,-3.36 -18.31,-2.59 -23.66,-7.12 -3.4,-4.65 -1.99,-17.98 -2.9,-24.92 -2.05,0.77 -11.25,16.88 -13.43,21.11 -7.07,0.94 -18.68,-3.48 -25.6,-4.99 1.97,6.56 11.77,14.02 15.61,19.88l-12.42 22.46 23.6 -9.18c7.26,5.75 10.45,13.52 18.1,19.47l-2.41 -26.55 17 -6.53c1.43,-0.6 1.76,-0.74 2.69,-1.26 0.36,-0.2 1.43,-0.9 1.73,-1.1 0.25,-0.16 0.65,-0.49 0.85,-0.63 0.19,-0.13 0.57,-0.41 0.84,-0.64z"/>
  <path class="fil0" d="M646.88 1073.37c-28.98,7.29 -41.86,38.72 -35.96,60.92 5.89,22.17 31.15,44.04 60.71,35.53 20.66,-5.95 42.67,-30.83 35.73,-60.5 -5.44,-23.23 -31.08,-43.35 -60.48,-35.95zm19.55 80.81c-35,14.42 -57.19,-42.09 -15.15,-64.46 16.14,-8.59 37.02,6.01 38.21,23.34 1.14,16.64 -10.26,35.85 -23.06,41.12z"/>
  <path class="fil0" d="M729.92 1123.82l-9.28 43.47c-5.02,22.1 -1.3,15.21 -8.63,18.45l-1.74 8.9 26.66 5.44c3.17,-15.26 -3.31,-5.85 -0.28,-19.44 1.39,-6.23 1.99,-15.25 5.07,-19.97 10.83,2.05 17.16,37.99 25.02,45.01 2.48,2.21 15.64,4.41 20.28,4.57l1.22 -8.65c-8.67,-6.77 -6.86,-5.8 -11.82,-16.21 -2.51,-5.25 -7.49,-14.41 -8.57,-19.77 32.05,-2.84 34.09,-32.13 23.74,-44.3 -6.59,-7.76 -15.84,-10.22 -27.15,-12.49 -9.98,-2 -24.73,-6.47 -34.8,-6.8 -0.23,1.36 -0.99,4.83 -0.92,5.97 0.49,7.74 4.12,3.25 1.2,15.82zm15.33 22.68c-1.49,-5.92 2.53,-17.95 3.63,-24.88 11.98,-1.2 31.6,4.78 30.84,16.38 -1.17,17.78 -21.57,9.62 -34.47,8.5z"/>
  <path class="fil0" d="M827.38 1133.93l-6.33 57.1c-2.09,18.61 -2.92,9.94 -4.65,16.35 -0.56,2.1 -0.13,4.63 -0.07,6.93l20.35 -0.84c3.82,-1.03 1.72,-0.31 3.47,-1.32 -0.14,-4.37 0.24,-3.54 -1.27,-7.12 -2.2,-5.18 -2.17,3.04 -2.46,-7.39l5.64 -46.33c6.64,9.65 14.99,33.04 21.13,39.5l8.63 -0.41c3.46,-6.29 11.44,-34.22 13.18,-42.44 4.51,4.37 7.22,21.53 9.59,30.26 1.14,4.22 3.15,10.65 3.84,14.79 1.46,8.75 -0.1,4.03 -0.94,6.98 -1.13,3.93 -0.84,3.91 -0.45,8.74l25.36 -0.7c1.73,-17.16 -1.94,-1.89 -7.18,-21.51l-12.6 -48.09c-1.03,-3.59 -3.04,-8.05 -2.34,-11.75 0.06,-0.34 0.21,-0.67 0.3,-1 0.6,-2.15 3.33,-3.86 0.9,-11.25l-20.4 0.79c-3.02,4.38 -5.3,15.37 -7.4,21.7l-5.24 17.19c-0.48,1.35 -0.54,1.61 -1.15,2.85 -0.77,1.55 -1.18,1.96 -1.46,2.33l-20.78 -41.25 -20.79 1.03c-0.43,2.59 -0.77,3.06 -0.34,5.83 1.07,6.8 0.64,1.85 2.03,4.49 1.11,2.1 1.17,-2.87 1.43,4.54z"/>
  <path class="fil0" d="M946.8 1102.42c-0.64,8.09 -6.33,85 -8.26,90.37 -2.89,8.08 -2.49,2.33 -0.38,11.76l23.18 -6.58c-0.21,-6.44 0.03,-7.13 -5.21,-10.41 -0.2,-0.12 -0.65,-0.3 -0.94,-0.5l1.73 -25.34 26.32 -8.62c2.65,1.9 0.82,0.52 3.44,2.82l9.43 10.44c8.43,9.09 2.32,4.7 6.24,17.57l25.58 -7.65c-0.91,-9.42 -1.13,-7.08 -6.6,-10.17 -4.62,-2.6 -39.09,-41.89 -44.37,-47.93 -5.02,-5.73 -12.14,-13.1 -16.83,-19.48l-13.33 3.72zm8.33 42.77l3.3 -21.83 15.85 16.92 -19.15 4.91z"/>
  <path class="fil0" d="M1001.85 1098.86c5.56,-2.56 11.36,-7.12 17.76,-8.53l29.46 53.53c6.52,11.71 -5.54,6.84 4.24,17.64 5.85,-1.9 21.86,-10.44 24.57,-14.05 -6.83,-14.68 -6.26,0.16 -13.1,-12.84 -6.24,-11.85 -28.38,-48.87 -28.45,-54.5 3.8,-2.18 12.23,-7.98 15.63,-7.93 3.28,0.05 5.68,2.44 7.31,3.07l6.04 -4.12 -9.2 -18.45c-3.98,0.68 -66.34,34.57 -71.6,39.32l9.16 17.69c10.82,-1.5 7.57,-3.69 8.18,-10.83z"/>
  <path class="fil0" d="M1083.06 1056.97c5.24,6.31 37.68,42.69 38.17,47.04 0.58,5.2 -3.26,5.14 4.7,11.03 4.34,-2.3 18.71,-13.51 21,-17.76 -4.45,-7.66 -2.96,-5.14 -9.2,-6.19 -5.17,-0.86 -33.89,-38.33 -39.82,-45.1 -15.24,-17.4 1.08,-12.15 -11.59,-20.72 -5.3,3.63 -18.15,13.67 -20.88,17.88 8.41,14.84 2.89,-3.94 17.62,13.82z"/>
  <path class="fil0" d="M1113.55 1018.55c3.29,0.82 52.92,41.1 54.16,43.74 3.21,6.77 -2.41,4.4 7.07,10.46 3.23,-2.11 15.19,-16.04 16.88,-20.36 -7.44,-8.37 -3.27,-3.3 -11.21,-5.37 -3.06,-0.81 -8.18,-5.65 -10.92,-7.86 -13,-10.49 -11.39,-4.56 -12.03,-25.54 5.73,0.02 41.8,4.18 45.81,8.7l7.12 6.81c4.17,-2.72 15.27,-17.19 17.74,-21.63 -6.87,-9.63 -5.52,-3.86 -14.96,-4.05 -4.86,-0.1 -52.72,-7.85 -54.77,-9.68 -3.16,-2.83 -2.3,-25.13 -1.55,-29.66 0.83,-5.08 1.96,-3.69 2.88,-7.75 -3.59,-2.55 -3.23,-3.57 -7.85,-5.46 -3.31,3.97 -16.95,19.85 -19.11,25.17l8.7 6.11 0.85 33.87c-4.24,-1.62 -10.33,-6.93 -13.79,-9.86 -8.1,-6.87 0.72,-9.11 -10.56,-12.91 -3.46,3.38 -14.76,17.07 -16.2,21.29 9.81,6.35 6.19,2.58 11.74,3.98z"/>
  <path class="fil0" d="M1168.37 919.27c8.02,4.71 33.7,36.37 43.48,45.89l16.73 18.87c3.6,6.42 -1.16,6.77 9.58,8.94l10.37 -20.96c-6.89,-5.6 -6.17,-3.37 -13.01,-2.81 -4.41,-7.05 -11.59,-11.17 -15.91,-18.48 1.64,-6.89 6.96,-19.18 11.94,-25.15l26.95 -0.3c0.45,5.63 3.22,6.23 8.7,6.84 3.19,-6.1 9.91,-18.88 10.15,-24.44 -14.07,-5.48 -2.36,0.08 -20.68,-0.05 -25.6,-0.19 -57.97,-2.18 -81.89,-1.4l-6.41 13.05zm42.61 20.86l-19.97 -16.18 25.33 -0.99 -5.36 17.17z"/>
  <path class="fil0" d="M1241.15 806.56c3.34,-2.27 14.42,-15.84 16.81,-18.98 8.64,0.68 15.91,6.84 24.39,9.12 -2.67,-8.98 -10.29,-15.78 -11.99,-22.9 4.85,-5.88 12.24,-12.4 15.16,-19.48 -8.61,1.5 -16.82,5.29 -24.92,4.75l-13.02 -21.58 -2.76 25.77 -24.94 6.09 22.29 10.29c1.32,7.05 0.93,4.38 0,12.65 -0.53,4.72 -1.1,9.47 -1.02,14.27z"/>
  <path class="fil0" d="M1237.57 645.16l38.18 -34.41c-1.53,-18.67 -3.45,-13.57 -25.47,-15.26 -9.5,-0.73 -60.68,-2.6 -68.82,-5.42 -8.05,-2.79 -14.18,-3.35 -9.65,8.28 1.86,4.79 3.34,11.38 5.61,15.29 8.38,-1.39 7.41,-2.3 10.57,-6.89l25.46 1.58 8.79 26.71c-5.61,5.26 -8.95,8.2 -13.62,12.84 -10.12,10.05 -7.35,-1.06 -16.86,7.1l7.78 24.08c13.03,-0.52 2.76,-1.77 19.56,-16.76 3.33,-2.98 5.89,-5.06 9.14,-8.01 3.49,-3.16 5.8,-6 9.33,-9.13zm12.36 -37.25l-14.94 16 -6.52 -16.25 21.46 0.25z"/>
  <path class="fil0" d="M1172.36 570.9c2.01,-4.27 41.89,-30.54 48.31,-35.12 4.07,-2.91 6.06,-5.52 10.69,-5.74 5.57,-0.26 5.42,1.87 10.46,-4.45 -2.74,-5.01 -10.13,-16.12 -14.23,-19.72 -14.52,8.55 1.33,5.39 -12.83,14.74 -3.73,2.46 -12.59,8.39 -15.48,10.92 -1.94,-16.42 8.84,-53.19 3.3,-62.74 -1.69,-2.9 -8.21,-11.72 -10.63,-13.53 -13.07,7.05 -0.96,6.62 -10.6,13.5 -7.18,5.12 -51.37,37.37 -55.17,37.18 -4.62,-0.23 1.94,-4.15 -10.88,2.21 0.76,4.51 7.1,12.91 9.89,16.81 2.9,4.08 1.37,2.74 4.7,4.93 14.78,-7.72 -0.31,-5.77 10.55,-13.52l44.57 -30.42c-1.59,17.06 -3.63,34.15 -5.3,51.2 -1.29,13.11 -3.34,9.79 -11.56,16.18 -11.64,9.04 -6.46,-5 -17.39,6.58 1.89,6.1 9.33,17.3 15.5,20.35 1.5,-1.83 2.8,-2.24 3.87,-3.76 2.09,-2.96 0.85,-2.68 2.23,-5.6z"/>
  <path class="fil0" d="M1111.45 475.33l20.18 -76.49c-9.58,-11.79 -11.5,-6.89 -23.76,-0.77l-63.67 33.85c-7.27,2.62 -8.37,-0.89 -11.91,7.85 2.36,3.01 14.24,12.77 18.38,14.61 4.25,-3.48 4.59,-3.92 5.35,-9.23 0.65,-4.61 15.84,-10.74 21.06,-13.39 4.29,1.76 18.71,13.39 22.26,17.25l-5.88 25.06c-5.71,3.35 -6.1,0.26 -9,7.95 3.22,3.85 16.07,14.12 20.35,16.33 8.2,-7.36 2.36,-8.78 6.64,-23.02zm-5.76 -40.88l-15.51 -9.74 19.14 -9.9 -3.63 19.64z"/>
  <path class="fil0" d="M1006.43 384.78c16.6,-1.72 21.07,-1.17 29.02,-11.71 7.3,-9.68 7.49,-22.85 0,-31.64 -6.63,-7.77 -16.09,-11.41 -25.74,-15.11l-26.76 -10.37c-0.35,-0.02 -0.78,0.02 -1.1,0.02l-2.26 0.28c-5.43,15.07 4.94,1.65 -4.18,23.14l-20.03 50.04c-5.17,11.5 -5.86,-3.16 -10.06,13.37 4.73,2.67 20.19,8.84 25.34,9.63 4.69,-16.85 -2.59,-6.49 2.77,-19.47 1.26,-3.07 5.83,-15.82 8.59,-17.89 4.5,1.67 3.53,0.6 5.14,5.55 12.09,37.11 1.71,44.61 30.34,51.07l3.04 -7.72c-7.4,-9 -4.47,-2.98 -8.58,-18.09 -1.81,-6.68 -4.62,-14.9 -5.53,-21.1zm15.98 -23.58c-5.25,13.48 -26.32,4.98 -34.56,-0.65 0.49,-7.56 5.08,-17.38 8.69,-22.93 10.32,2.2 31.56,8.99 25.87,23.58z"/>
  <path class="fil0" d="M922.79 380.13l-19.4 -64.86c-4.73,-14.97 -1.49,-17.73 -17.75,-17.58 -5.42,5.46 -20.2,34.3 -25.64,43.7l-18.98 32.65c-5.27,6.2 -5.39,-0.01 -6.26,11.59l24.43 4.27c1.71,-13.37 0.06,-6.32 -2.24,-13.13 4.83,-6.51 6.87,-14.91 12.84,-21.17l27.42 2.77c1.74,3.95 8.69,22.04 7.08,26.11 -1.01,2.56 -0.63,-1.09 -2.18,4.13 -0.74,2.48 -0.63,4.09 -0.77,6.54 7.89,0.89 18.75,3.43 26.54,2.34l1.22 -7.88c-3.98,-3.93 -4.05,-2.43 -6.31,-9.48zm-28.27 -38.1l-18.81 -0.17 12.21 -16 6.6 16.17z"/>
  <path class="fil0" d="M746.81 375.07c11.66,40.51 97.09,18.49 73.74,-23.41 -12.01,-21.53 -63.39,-12.22 -59.32,-29.4 5.34,-9.32 20.8,-11.55 31.98,-8.05 3.38,6.55 -4.43,9.62 9.25,11.51 2.77,-4.27 9.59,-14 10.21,-17.98 -41.72,-30.32 -89.55,12.68 -59.98,36.55 12.89,10.41 44.14,8.69 51.5,15.83 15.18,14.74 -18.2,25.76 -37.35,17.74 -1.06,-7.95 0.27,-3.55 2.13,-9.39l-6.05 -6.27c-3.71,1.39 -14.53,10.93 -16.11,12.87z"/>
  <path class="fil0" d="M429.39 938.67c4.14,-7.65 -5.49,-3.74 16.25,-11.98 7.42,-2.81 14.1,-5.97 21.51,-9.03 4.64,-1.91 27.12,-11.78 31.03,-10.94 6.23,1.33 -2.57,2.1 5.6,1.36 1.26,-0.11 4.04,-1.48 5.5,-2.25 -0.56,-7.95 -7.04,-17.31 -8.76,-25.71 -18.35,2.46 3,3.09 -20.29,12.59 -7.57,3.09 -13.64,5.44 -22.5,8.9 -5.13,2 -29.04,13.39 -33.78,12.65 -4.7,-0.74 1.52,-3.22 -11.88,0.01 1.09,8.02 6.43,20.54 10.14,26.42l7.18 -2.02z"/>
  <path class="fil0" d="M497.91 936.7l-40.91 26.45c-4.06,2.7 -6.54,5.49 -10.36,4.82 -3.77,-0.66 1.01,-4.51 -10.82,2.61l12.62 21.44c13.6,-2.91 3.79,-6.43 11.81,-12.48l46.14 -28.63c-1.57,16.47 -4.85,32.89 -6.95,49.66 -1.47,11.77 -3.94,11.24 -12.22,16.62 -11.74,7.63 -8.18,-5.04 -17.61,6.15 1.97,5.23 9.43,16.95 13.33,20.17 8.84,-3.76 5.66,-4.26 7.74,-8.65 1.62,-3.43 25.03,-17.65 29.49,-20.47 8.27,-5.23 12.94,-8.49 20.13,-13.01 15.32,-9.65 8.2,-3.47 15.86,-5.37 1.5,-0.38 3.49,-2 5.93,-2.83l-12.8 -21.41c-14.44,3.76 -2.26,6.08 -11.56,12.54 -6.27,4.35 -11.25,8.71 -18.95,10.88 1.37,-9.6 9.92,-54.2 6.05,-61.23 -2.44,-4.44 -6.27,-10.98 -10.2,-13.9 -15.89,6.86 3.72,3.07 -16.72,16.64z"/>
  <path class="fil0" d="M586.3 1058.67c-4.5,-3.67 -11.19,-9.86 -15.58,-12.22 1.57,-5.85 7.44,-12.08 11.24,-15.46l28.66 23.17c5.3,5.21 3.02,5.33 1.2,12.2l6.95 4.91c3.12,-2.11 12.09,-12.27 14.6,-17.56 -4.03,-4.63 -55.05,-47.47 -59.33,-49.21 -7.38,7.35 -3.45,4 -4.54,10.73 -0.57,3.51 -4.5,6.36 -7.12,9.65 -5.16,6.47 -34.26,44.05 -39.76,45.21 -4.25,0.9 0.04,-4.1 -8.97,6.06 1.86,2.93 16.17,15.73 20.78,17.14 10.87,-11.14 -2.7,-3.69 10.35,-18.64 3.1,-3.55 11.88,-12.94 13.91,-17.57 6.81,2.15 11.22,7.92 16.82,12.35 12.34,9.75 2.23,6.42 8.19,12.83 1.38,1.49 3.16,2.14 4.87,2.66 3.47,-3.26 13.01,-14.64 14.23,-18.01 -8.4,-11.1 -5.54,0.71 -16.5,-8.24z"/>
  <path class="fil0" d="M556.96 871.21l96.88 0.6 1.42 83.63c9.31,3.31 68.54,0.96 83.82,0.96 55.97,0 85.36,0 133.93,-36.77 10.63,-8.05 23.65,-19.88 32.74,-30.63 4.15,-4.9 5.86,-8.14 10.25,-12.32l202.53 -0.39 0.57 -247.36 -102.84 -0.43 -0.45 -77.02c-17.52,-2.83 -60.1,-0.5 -80,-0.5 -53.53,0 -83.78,-2.63 -129.25,31.54 -13.24,9.94 -33.09,28.14 -40.83,40.72l-208.28 0.37 -0.49 247.6zm124.66 -28.15l-95.84 -0.52 0.45 -190.13 193.8 -0.22c16.19,-24.81 44.46,-52.25 75.07,-64.64 31.04,-12.55 93.1,-7.94 131.59,-7.67l0.24 77.29 103.37 0.17 -0.47 190.07 -190.13 0.09c-14.72,27.15 -48.07,55.98 -78.85,70.21 -22.17,10.26 -36.72,10.13 -64.6,10.13 -23.94,0.01 -49.65,0.89 -73.91,-0.14l-0.72 -84.64z"/>
  <path class="fil0" d="M603.35 827.5l76.32 0.23c52.72,-0.01 55.87,-62.13 36.39,-75.55 2.29,-6.08 2.39,-3.91 5.53,-9.05 5.72,-9.36 7.2,-24.1 5.78,-35.4 -2.05,-16.24 -11.21,-25.87 -22.86,-32.76 -14.85,-8.79 -27,-8.29 -45.97,-8.29 -12.47,0 -45.81,-2.63 -54.64,1.03l-0.55 159.79zm67.17 -43.49c-6.38,0.07 -15.55,0.63 -21.67,-0.57l0.02 -14.07c6.09,-1.2 12.72,-0.61 18.97,-0.62 9.4,-0.02 8.71,-0.86 14.68,4.51 0.16,9.5 -2.21,10.66 -12,10.75zm12.08 -66.35c-0.07,13.9 -9.58,10.37 -33.71,10.41l0.43 -14.83c18.45,-0.09 25.22,-2.58 33.28,4.42z"/>
  <path class="fil0" d="M786.52 780.25c-19.13,47.59 -28.42,45.6 -73.88,47.48l-0.18 85c41.7,1.98 76.03,2.96 103.58,-18.41 25.43,-19.73 30.99,-44.85 43.56,-79.28 10.69,-29.3 21.94,-60.22 31.88,-90.72 5.19,-15.94 8.35,-32.08 19.2,-41.66 16.57,-14.63 27.19,-9.94 51.21,-11.1l0.56 -79.57c-40.84,-1.84 -75.36,-3.3 -103.12,18.2 -24.36,18.86 -30.41,46.47 -41.35,80.13 -9.63,29.64 -20.1,61.67 -31.46,89.93z"/>
  <polygon class="fil0" points="993.01,716.56 993.07,789.5 965.39,789.75 965.22,833.94 1080.74,834.24 1081.02,789.99 1053.45,789.52 1052.92,716.74 1080.36,716.41 1081.09,672.21 965.31,671.83 965.28,716.21 "/>
  <path class="fil0" d="M497.81 642.11c5.72,-16.7 16.05,-45.06 -8.04,-56.04 -13.01,-5.92 -21.27,-1.44 -30.59,4.32l-3.44 -4.64c-9.79,-13.36 -28.12,-14.01 -38.93,3.03 -3.98,6.28 -18.74,45.72 -18.43,52.75 14.29,3.97 6.68,-2.19 15.35,-0.84 0.69,0.11 5.2,1.81 6.05,2.13l43.15 14.92c22.05,7.38 12.96,3.6 16.57,12.06l7.37 1.65c2.86,-4.38 9.15,-24.13 10.94,-29.34zm-9.46 -20.08c-0.96,4.11 -5.91,19.05 -8.09,22.03l-27.66 -9.07c2.77,-13.67 10.12,-37.72 26.78,-33.07 9.27,2.59 11.42,9.65 8.97,20.11zm-49.52 -27.2c12.75,3.15 3.63,26.33 -0.95,34.58l-18.22 -6.09c1.71,-10.25 7.78,-31.3 19.17,-28.49z"/>
  <path class="fil0" d="M484.8 554.03c3.88,2.33 27.75,15.3 29.61,19.46 2.27,5.08 -1.54,5.18 8.14,8.52 5.2,-6.93 11.08,-16.11 14.01,-23.42 -10.56,-10.78 -2.69,3.11 -21.82,-8.08l-41.25 -24.7c-1.64,-1 -3.36,-2.01 -5.01,-2.99 -3.82,-2.3 -3.18,-1.19 -4.72,-4.45 -2.15,-4.6 0.59,-6.48 -8.54,-8.32 -4.25,7.05 -11.47,16.59 -13.5,23.46 13.88,12.23 2.26,-4.28 22.43,8.19 7.28,4.5 13.3,7.91 20.65,12.33z"/>
  <path class="fil0" d="M512.29 506.72c3.21,2.8 25.53,22.23 26.26,24.74 1.83,6.32 -2.29,-2.25 0.32,5.36 0.75,2.18 3.12,3.78 4.81,5.14 4.91,-1.56 16.15,-14.69 17.79,-19.01 -11.24,-11.51 -6.16,1.16 -15.26,-6.4l-36.04 -32.77c-3.62,-4.07 -0.9,0.64 -3.13,-4.95 16.32,-0.75 33.8,-3.74 50.2,-5.8 12.03,-1.51 11.78,1.61 18.93,8.2 10.28,9.48 -4.05,5.84 9.76,14.89 3.83,-2.41 15.18,-14.19 16.17,-19.74 -10.11,-6.48 -5.3,-1.95 -11.64,-4.07 -2.31,-0.78 -6.92,-5.95 -9.36,-7.95 -6.21,-5.1 -40.6,-34.48 -42.33,-39.5 -1.5,-4.36 0.9,-7.08 -6.98,-9.89 -4.77,4.87 -14.19,14.94 -15.86,18.19 8.01,10.82 7.65,-0.02 16.51,8.54 4.84,4.67 11.61,8.86 14.22,14.29 -9.9,1.15 -55.07,4.23 -61.12,10.1 -2.19,2.13 -3.6,4.01 -5.6,6.3l-5.19 6.99c5.51,6.93 3.07,4.69 9.72,4.8 5.32,0.09 21.86,17.33 27.82,22.54z"/>
  <path class="fil0" d="M605.1 448.34c3.29,18.14 -3.44,14.22 4.59,22.09l20 -11.87c-2.23,-9.55 -5.65,-7.26 -9.02,-9.55l-4.19 -24.58c7.4,-5.05 15.76,-10.16 23.58,-14.42 6.03,2.15 11.25,6.77 16.85,10.25 11.58,7.19 -0.29,3.81 9.55,14.58l22.17 -13.29c-4.18,-11.55 -4.24,-7.19 -8.68,-8.31 -6.31,-1.59 -46.56,-30.45 -54.27,-35.77 -4.21,-2.9 -17.56,-12.45 -22.59,-14.44l-10.59 6.37 12.6 78.94zm8.2 -38.56l-3.39 -21.13 18.57 12.79 -15.18 8.34z"/>
 </g>
</svg>
